<?xml  version="1.0" encoding="UTF-8"?>
<!DOCTYPE svg PUBLIC "-//W3C//DTD SVG 1.0//EN" "http://www.w3.org/TR/2001/REC-SVG-20010904/DTD/svg10.dtd" >
<svg xmlns="http://www.w3.org/2000/svg" >
<metadata>
<version>1.0</version>
<id><![CDATA[Avenir LT W02 45 Book]]></id>
<vendor>Monotype Imaging Inc.</vendor>
<credits>
<name>Fonts.com WebFonts</name>
<URL>http://webfonts.fonts.com</URL>
<role>Home of the Web fonts</role>
</credits>
<license>
<URL>http://webfonts.fonts.com/Legal</URL>
</license>
<copyright><![CDATA[Part of the digitally encoded machine readable outline data for producing the Typefaces provided is copyrighted © 2005 - 2007 Linotype GmbH, www.linotype.com. All rights reserved. This software is the property of Linotype GmbH, and may not be reproduced, used, displayed, modified, disclosed or transferred without the express written approval of Linotype GmbH.  The digitally encoded machine readable software for producing the Typefaces licensed to you is copyrighted (c) 1989, 1995 Adobe Systems. All Rights Reserved. This software is the property of Adobe Systems Incorporated and its licensors, and may not be reproduced, used, displayed, modified, disclosed or transferred without the express written approval of Adobe. Avenir is a trademark of Linotype GmbH and may be registered in certain jurisdictions. This typeface is original artwork of Adrian Frutiger. The design may be protected in certain jurisdictions.]]></copyright>
<trademark><![CDATA[Avenir is a trademark of Linotype GmbH and may be registered in certain jurisdictions.]]></trademark>
<licensee>
<name></name>
</licensee>
</metadata>
<defs >
<font horiz-adv-x="528" id="71715770-8b1b-41d7-bc36-4e630e95fd3a">
<font-face font-family="" panose-1="2 11 5 2 2 2 3 2 2 4" ascent="920" descent="-288" units-per-em="1000" alphabetic="0">
</font-face>
<missing-glyph horiz-adv-x="0" />

<glyph unicode="&#xA;" />
<glyph unicode="&#xD;" horiz-adv-x="0" />
<glyph unicode=" " horiz-adv-x="278" />
<glyph unicode="!" horiz-adv-x="278" d="M193 48Q193 27 178 11T139 -6Q115 -6 100 10T85 48Q85 69 100 85T139 102Q163 102 178 86T193 48ZM175 192H103V708H175V192Z"  />
<glyph unicode="&quot;" horiz-adv-x="519" d="M302 708H362V473H302V708ZM157 708H217V473H157V708Z"  />
<glyph unicode="#" horiz-adv-x="556" d="M206 274H339L361 436H228L206 274ZM137 214H35V274H145L167 436H59V496H176L205 708H266L237 496H370L399 708H460L431 496H521V436H422L400 274H495V214H392L362 0H301L331 214H198L168 0H107L137 214Z"  />
<glyph unicode="$" horiz-adv-x="556" d="M254 328Q220 338 186 353T124 392T79 448T61 527Q61 570 77 605T121 665T182 704T254 722V792H302V724Q338 724 366 717T416 698T455 671T487 639L431 591Q410 626 374 642T302 658V391Q339 378 375 362T440 321T487 262T505 178Q505 136 490 102T447 42T382 2T302 -16V-84H254V-18Q184 -14 129 17T43 92L103 135Q119 114 139 98T179 71T218 55T254 49V328ZM302 50Q321 50 344 56T386 77T419 116T433 178Q434 229 397 262T302 314V50ZM254 657Q227 655 205 645T167 617T142 578T133 529Q133 503 142 484T168 451T207 425T254 405V657Z"  />
<glyph unicode="%" horiz-adv-x="833" d="M217 -31L165 -4L616 739L667 712L217 -31ZM735 163Q735 188 726 209T701 245T664 269T619 278Q595 278 574 270T538 246T513 209T503 163Q503 138 512 117T537 81T574 57T619 48Q643 48 664 56T700 80T725 117T735 163ZM795 163Q795 126 782 94T744 39T688 2T619 -12Q582 -12 550 1T494 38T457 94T443 163Q443 200 456 232T494 287T550 324T619 338Q656 338 688 325T744 288T781 232T795 163ZM330 545Q330 570 321 591T296 627T259 651T214 660Q190 660 169 652T133 628T108 591T98 545Q98 520 107 499T132 463T169 439T214 430Q238 430 259 438T295 462T320 499T330 545ZM390 545Q390 508 377 476T339 421T283 384T214 370Q177 370 145 383T89 420T52 476T38 545Q38 582 51 614T89 669T145 706T214 720Q251 720 283 707T339 670T376 614T390 545Z"  />
<glyph unicode="&amp;" horiz-adv-x="704" d="M254 348Q219 328 195 311T155 274T133 232T126 183Q126 153 138 128T170 86T216 58T271 48Q300 48 323 56T367 78T406 111T441 152L254 348ZM402 567Q402 609 374 634T304 660Q259 660 229 632T198 556Q198 538 206 519T226 482T250 451T272 429Q292 441 315 453T357 482T389 519T402 567ZM529 164L688 0H586L486 104Q442 47 392 15T270 -18Q226 -18 186 -5T115 35T66 98T48 184Q48 223 61 255T96 312T148 358T209 393Q177 427 152 468T126 559Q126 599 139 630T177 682T233 715T303 726Q338 726 369 716T423 685T460 636T474 567Q474 532 460 505T424 455T373 415T318 383L481 215L578 383H659L529 164Z"  />
<glyph unicode="&apos;" horiz-adv-x="260" d="M100 708H160V473H100V708Z"  />
<glyph unicode="(" horiz-adv-x="260" d="M252 702Q220 651 196 603T154 506T129 403T120 288Q120 226 128 174T153 74T193 -21T248 -120L195 -160Q128 -66 91 50T54 288Q54 404 90 521T199 736L252 702Z"  />
<glyph unicode=")" horiz-adv-x="260" d="M8 -126Q40 -75 64 -27T106 70T131 173T140 288Q140 350 132 402T107 502T67 597T12 696L65 736Q132 642 169 526T206 288Q206 172 170 55T61 -160L8 -126Z"  />
<glyph unicode="*" horiz-adv-x="444" d="M252 565L392 610L413 554L272 509L362 388L314 352L222 476L130 352L82 388L172 509L31 554L52 610L192 565V708H252V565Z"  />
<glyph unicode="+" horiz-adv-x="666" d="M363 333H588V273H363V48H303V273H78V333H303V558H363V333Z"  />
<glyph unicode="&#x2c;" horiz-adv-x="278" d="M132 -140H65L132 95H213L132 -140Z"  />
<glyph unicode="-" horiz-adv-x="333" d="M295 207H38V273H295V207Z"  />
<glyph unicode="." horiz-adv-x="278" d="M193 48Q193 27 178 11T139 -6Q115 -6 100 10T85 48Q85 69 100 85T139 102Q163 102 178 86T193 48Z"  />
<glyph unicode="/" horiz-adv-x="370" d="M63 -18L5 1L308 726L365 706L63 -18Z"  />
<glyph unicode="0" horiz-adv-x="556" d="M278 654Q220 654 187 623T136 546T115 448T110 354Q110 312 114 260T136 162T186 85T278 54Q336 54 369 85T420 162T441 260T446 354Q446 396 442 448T420 546T370 623T278 654ZM278 720Q354 720 401 685T474 596T509 478T518 354Q518 295 509 231T474 112T401 23T278 -12Q202 -12 155 23T82 112T47 230T38 354Q38 413 47 477T82 596T155 685T278 720Z"  />
<glyph unicode="1" horiz-adv-x="556" d="M348 0H276V618L149 506L104 560L284 708H348V0Z"  />
<glyph unicode="2" horiz-adv-x="556" d="M498 0H48V83L330 370Q346 386 362 404T391 442T412 484T420 530Q420 559 410 582T380 621T336 645T283 654Q229 654 191 624T142 543L66 551Q81 630 138 675T278 720Q321 720 359 709T427 674T474 617T492 536Q492 495 480 461T447 397T402 340T349 287L126 66H498V0Z"  />
<glyph unicode="3" horiz-adv-x="556" d="M204 404H241Q272 404 300 411T350 433T383 474T396 534Q396 591 362 622T265 654Q220 654 186 634T130 576L67 608Q99 665 148 692T263 720Q305 720 342 708T407 673T451 615T468 536Q468 507 459 481T433 434T394 398T348 374L351 372Q381 366 406 350T449 309T477 255T487 192Q487 143 469 105T420 41T348 2T261 -12Q183 -12 125 22T38 131L114 154Q132 103 167 79T267 54Q297 54 324 64T371 92T403 137T415 194Q415 234 400 261T360 306T303 330T235 338H204V404Z"  />
<glyph unicode="4" horiz-adv-x="556" d="M344 636H342L98 234H344V636ZM416 234H518V168H416V0H344V168H38V250L324 708H416V234Z"  />
<glyph unicode="5" horiz-adv-x="556" d="M465 642H175L171 429Q194 438 218 442T266 446Q316 446 357 429T427 382T473 310T490 219Q490 168 472 126T422 53T347 5T252 -12Q185 -12 131 20T48 114L119 145Q139 103 175 79T258 54Q292 54 321 66T371 100T405 150T418 212Q418 249 405 280T369 333T314 368T244 380Q206 380 169 370T97 341L104 708H465V642Z"  />
<glyph unicode="6" horiz-adv-x="556" d="M120 207Q120 173 131 145T164 97T214 65T278 54Q313 54 342 65T392 96T424 145T436 207Q436 241 425 269T392 317T342 348T278 360Q243 360 214 349T164 317T132 269T120 207ZM192 404L194 402Q211 414 239 420T292 426Q338 426 377 410T446 364T491 295T508 207Q508 158 491 118T443 49T370 4T278 -12Q228 -12 186 4T113 49T65 118T48 207Q48 266 65 310T109 397L300 708H385L192 404Z"  />
<glyph unicode="7" horiz-adv-x="556" d="M474 642L189 0H108L399 642H54V708H474V642Z"  />
<glyph unicode="8" horiz-adv-x="556" d="M430 199Q430 230 419 256T389 302T341 333T278 344Q243 344 215 333T168 303T137 257T126 199Q126 168 137 142T167 96T215 65T278 54Q312 54 340 65T388 95T419 141T430 199ZM404 529Q404 556 395 579T368 618T328 644T278 654Q251 654 228 645T188 619T162 579T152 529Q152 502 161 479T188 440T228 414T278 404Q305 404 328 413T368 439T394 479T404 529ZM186 377Q163 385 144 400T110 437T88 483T80 535Q80 577 96 611T139 670T202 707T278 720Q318 720 354 707T417 670T460 612T476 535Q476 508 468 483T446 437T413 401T370 377V375Q430 359 466 309T502 189Q502 143 484 106T435 43T364 2T278 -12Q233 -12 193 2T122 42T73 106T54 189Q54 259 90 309T186 375V377Z"  />
<glyph unicode="9" horiz-adv-x="556" d="M436 501Q436 535 425 563T392 611T342 642T278 654Q243 654 214 643T164 611T132 563T120 501Q120 467 131 439T164 391T214 359T278 348Q313 348 342 359T392 390T424 439T436 501ZM364 304L362 306Q345 294 317 288T264 282Q218 282 179 298T110 344T65 413T48 501Q48 550 65 590T113 659T186 704T278 720Q328 720 370 704T443 659T491 590T508 501Q508 442 491 398T447 311L256 0H171L364 304Z"  />
<glyph unicode=":" horiz-adv-x="278" d="M193 48Q193 27 178 11T139 -6Q115 -6 100 10T85 48Q85 69 100 85T139 102Q163 102 178 86T193 48ZM193 419Q193 398 178 382T139 365Q115 365 100 381T85 419Q85 440 100 456T139 473Q163 473 178 457T193 419Z"  />
<glyph unicode=";" horiz-adv-x="278" d="M202 419Q202 398 187 382T148 365Q124 365 109 381T94 419Q94 440 109 456T148 473Q172 473 187 457T202 419ZM132 -140H65L132 95H213L132 -140Z"  />
<glyph unicode="&lt;" horiz-adv-x="666" d="M588 504L159 303L588 102V42L78 280V326L588 564V504Z"  />
<glyph unicode="=" horiz-adv-x="666" d="M588 258V198H78V258H588ZM588 408V348H78V408H588Z"  />
<glyph unicode="&gt;" horiz-adv-x="666" d="M78 564L588 326V280L78 42V102L507 303L78 504V564Z"  />
<glyph unicode="?" horiz-adv-x="482" d="M300 48Q300 27 285 11T246 -6Q222 -6 207 10T192 48Q192 69 207 85T246 102Q270 102 285 86T300 48ZM276 192H204V275Q204 302 216 324T247 366T286 404T324 442T354 486T366 539Q366 590 334 622T249 654Q198 654 165 624T122 545L47 554Q53 593 70 624T114 676T175 709T248 720Q288 720 323 709T383 675T423 620T438 545Q438 503 426 474T396 424T357 385T318 349T288 304T276 243V192Z"  />
<glyph unicode="@" horiz-adv-x="800" d="M560 550H616L532 268Q528 255 526 242T523 217Q523 209 529 203T546 197Q572 197 599 215T647 264T683 334T697 415Q697 472 673 519T610 600T520 653T417 672Q352 672 295 646T196 575T128 474T103 354Q103 292 128 235T195 133T295 63T417 36Q492 36 560 68T670 157H733Q709 116 675 84T600 29T513 -6T417 -18Q340 -18 272 10T153 89T73 208T43 354Q43 432 72 500T153 618T272 697T417 726Q486 726 548 704T656 640T730 543T757 419Q757 354 734 302T676 213T601 157T527 137Q497 137 479 151T457 196H455Q432 172 403 155T330 137Q266 137 227 178T188 287Q188 339 204 389T252 480T326 544T422 569Q459 569 489 551T536 487H538L560 550ZM503 409Q503 430 496 448T478 480T453 501T422 509Q386 507 355 487T302 435T267 366T254 293Q254 251 280 224T348 197Q381 197 409 218T458 272T491 341T503 409Z"  />
<glyph unicode="A" horiz-adv-x="686" d="M189 252H496L343 624L189 252ZM84 0H0L308 708H378L686 0H602L524 186H162L84 0Z"  />
<glyph unicode="B" horiz-adv-x="630" d="M168 66H306Q345 66 379 74T438 98T477 140T492 200Q492 270 447 304T315 338H168V66ZM168 398H313Q339 398 364 404T410 426T444 464T457 522Q457 533 453 553T433 593T387 627T306 642H168V398ZM96 708H307Q351 708 392 699T465 669T516 614T535 530Q535 472 503 431T410 375V373Q485 367 527 321T570 196Q570 179 562 146T526 81T448 24T312 0H96V708Z"  />
<glyph unicode="C" horiz-adv-x="704" d="M679 112Q661 85 635 61T574 20T501 -8T417 -18Q338 -18 271 10T154 87T76 205T48 354Q48 435 76 503T153 620T270 698T417 726Q483 726 549 700T662 614L599 567Q588 584 569 601T526 631T473 652T417 660Q349 660 295 635T204 568T146 471T126 354Q126 293 146 238T203 140T295 73T417 48Q445 48 472 53T526 70T576 102T620 154L679 112Z"  />
<glyph unicode="D" horiz-adv-x="741" d="M158 66H298Q379 66 438 90T537 155T596 247T615 354Q615 409 596 460T538 552T439 617T298 642H158V66ZM86 708H321Q387 708 453 686T573 620T660 509T693 354Q693 265 660 199T574 89T454 22T321 0H86V708Z"  />
<glyph unicode="E" horiz-adv-x="593" d="M168 66H547V0H96V708H535V642H168V401H511V335H168V66Z"  />
<glyph unicode="F" horiz-adv-x="556" d="M168 0H96V708H523V642H168V401H498V335H168V0Z"  />
<glyph unicode="G" horiz-adv-x="778" d="M619 578Q583 616 533 638T417 660Q349 660 295 635T204 568T146 471T126 354Q126 293 146 238T203 140T295 73T417 48Q472 48 522 61T613 98V335H444V401H685V54Q625 19 554 1T417 -18Q338 -18 271 10T154 87T76 205T48 354Q48 435 76 503T153 620T270 698T417 726Q502 726 563 703T673 631L619 578Z"  />
<glyph unicode="H" horiz-adv-x="722" d="M96 708H168V401H554V708H626V0H554V335H168V0H96V708Z"  />
<glyph unicode="I" horiz-adv-x="264" d="M168 0H96V708H168V0Z"  />
<glyph unicode="J" horiz-adv-x="482" d="M87 145Q97 100 124 74T199 48Q238 48 262 63T300 103T319 159T324 224V708H396V194Q396 158 387 121T354 53T292 2T197 -18Q124 -18 75 19T14 130L87 145Z"  />
<glyph unicode="K" horiz-adv-x="630" d="M168 401H169H178L511 708H614L257 387L634 0H528L180 365H169H168V0H96V708H168V401Z"  />
<glyph unicode="L" horiz-adv-x="500" d="M168 66H498V0H96V708H168V66Z"  />
<glyph unicode="M" horiz-adv-x="890" d="M445 132L684 708H794V0H722V612H720L464 0H426L170 612H168V0H96V708H206L445 132Z"  />
<glyph unicode="N" horiz-adv-x="778" d="M608 108H610V708H682V0H592L170 606H168V0H96V708H186L608 108Z"  />
<glyph unicode="O" horiz-adv-x="834" d="M708 354Q708 415 688 470T631 568T539 635T417 660Q349 660 295 635T204 568T146 471T126 354Q126 293 146 238T203 140T295 73T417 48Q485 48 539 73T630 140T688 237T708 354ZM786 354Q786 273 758 205T681 88T564 10T417 -18Q338 -18 271 10T154 87T76 205T48 354Q48 435 76 503T153 620T270 698T417 726Q496 726 563 698T680 621T758 503T786 354Z"  />
<glyph unicode="P" horiz-adv-x="574" d="M168 395H284Q332 395 365 405T419 431T448 470T457 519Q457 544 448 566T419 606T366 632T284 642H168V395ZM96 708H302Q410 708 472 661T535 519Q535 424 473 377T302 329H168V0H96V708Z"  />
<glyph unicode="Q" horiz-adv-x="834" d="M811 0H406Q329 0 264 27T150 102T75 217T48 363Q48 442 75 508T150 623T263 699T406 726Q482 726 547 699T661 624T736 509T763 363Q763 267 724 191T597 68V66H811V0ZM126 363Q126 304 145 251T200 156T288 91T406 66Q471 66 523 90T611 156T666 250T685 363Q685 422 666 475T611 570T523 635T406 660Q340 660 288 636T200 570T145 476T126 363Z"  />
<glyph unicode="R" horiz-adv-x="593" d="M168 395H296Q344 395 377 405T431 431T460 470T469 519Q469 544 460 566T431 606T378 632T296 642H168V395ZM168 0H96V708H314Q422 708 484 661T547 519Q547 445 501 395T366 336L570 0H482L288 329H168V0Z"  />
<glyph unicode="S" horiz-adv-x="556" d="M431 591Q384 660 294 660Q266 660 239 653T191 630T156 590T143 532Q143 484 170 458T237 414T324 384T412 348T479 288T506 187Q506 139 486 101T432 36T357 -4T273 -18Q208 -18 150 6T50 87L115 134Q138 95 179 72T276 48Q303 48 330 56T378 81T414 122T428 177Q428 214 413 238T372 279T314 307T247 329T180 354T122 389T81 443T65 525Q65 576 84 614T136 677T210 714T294 726Q354 726 403 707T494 640L431 591Z"  />
<glyph unicode="T" horiz-adv-x="574" d="M323 0H251V642H14V708H560V642H323V0Z"  />
<glyph unicode="U" horiz-adv-x="686" d="M602 264Q602 220 592 171T552 79T473 10T343 -18Q263 -18 213 9T134 79T95 170T84 264V708H156V272Q156 221 166 185T192 123T229 84T270 61T310 51T343 48Q356 48 375 50T415 61T456 83T493 123T520 184T530 272V708H602V264Z"  />
<glyph unicode="V" horiz-adv-x="611" d="M302 108H304L536 708H614L338 0H266L-3 708H77L302 108Z"  />
<glyph unicode="W" horiz-adv-x="944" d="M250 102H252L430 708H516L694 102H696L864 708H944L735 0H651L473 606H471L293 0H209L0 708H80L250 102Z"  />
<glyph unicode="X" horiz-adv-x="630" d="M316 425L514 708H604L364 372L624 0H529L313 321L96 0H6L265 372L26 708H123L316 425Z"  />
<glyph unicode="Y" horiz-adv-x="574" d="M323 0H251V305L-14 708H76L287 374L498 708H588L323 305V0Z"  />
<glyph unicode="Z" horiz-adv-x="556" d="M527 648L114 66H533V0H23V60L437 642H29V708H527V648Z"  />
<glyph unicode="[" horiz-adv-x="260" d="M227 678H131V-102H227V-156H65V732H227V678Z"  />
<glyph unicode="\" horiz-adv-x="370" d="M5 706L62 726L365 1L307 -18L5 706Z"  />
<glyph unicode="]" horiz-adv-x="260" d="M33 -102H129V678H33V732H195V-156H33V-102Z"  />
<glyph unicode="^" horiz-adv-x="666" d="M309 708H357L586 275H524L333 636L142 275H80L309 708Z"  />
<glyph unicode="_" horiz-adv-x="500" d="M0 -75H500V-125H0V-75Z"  />
<glyph unicode="`" horiz-adv-x="240" d="M-10 708H81L181 564H122L-10 708Z"  />
<glyph unicode="a" horiz-adv-x="519" d="M338 233Q313 233 276 231T204 219T145 189T120 134Q120 111 129 95T155 68T190 53T230 48Q266 48 292 60T337 92T363 140T372 199V233H338ZM372 287V299Q372 420 252 420Q170 420 109 365L69 412Q135 480 267 480Q301 480 332 470T387 440T424 388T438 314V105Q438 78 440 49T446 0H382Q379 17 378 37T376 76H374Q345 29 306 9T209 -12Q178 -12 149 -4T98 22T62 65T48 125Q48 182 77 214T151 263T246 283T339 287H372Z"  />
<glyph unicode="b" horiz-adv-x="611" d="M499 234Q499 273 487 307T451 366T396 405T322 420Q281 420 247 406T188 366T149 307T135 234Q135 195 149 161T188 102T247 63T322 48Q363 48 395 62T451 102T486 161T499 234ZM72 756H138V390H140Q156 414 178 431T224 459T273 475T322 480Q377 480 422 462T501 410T552 332T571 234Q571 181 553 136T501 58T423 7T322 -12Q299 -12 274 -7T224 9T178 37T140 78H138V0H72V756Z"  />
<glyph unicode="c" horiz-adv-x="482" d="M413 358Q396 384 366 402T296 420Q255 421 223 407T167 368T132 309T120 234Q120 194 132 160T167 100T222 61T296 48Q335 48 365 66T413 110L467 69Q432 28 388 9T296 -12Q239 -13 193 5T115 57T65 135T48 234Q48 287 65 332T114 411T193 462T296 480Q344 479 388 460T467 399L413 358Z"  />
<glyph unicode="d" horiz-adv-x="611" d="M112 234Q112 195 124 161T160 102T215 63T289 48Q329 48 363 62T423 102T462 161T476 234Q476 273 462 307T423 366T364 405T289 420Q248 420 216 406T160 366T125 307T112 234ZM539 0H473V78H471Q455 54 433 37T387 9T338 -7T289 -12Q234 -12 189 6T110 58T59 136T40 234Q40 287 58 332T110 410T188 461T289 480Q312 480 337 475T387 459T433 431T471 390H473V756H539V0Z"  />
<glyph unicode="e" horiz-adv-x="556" d="M436 270Q436 337 396 378T284 420Q252 420 222 408T170 374T134 326T120 270H436ZM118 216Q121 181 135 150T172 97T225 61T290 48Q343 48 381 72T440 129L491 87Q449 34 399 11T290 -12Q238 -12 194 6T117 58T67 136T48 234Q48 287 66 332T116 410T191 461T284 480Q337 480 379 461T449 411T493 337T508 246V216H118Z"  />
<glyph unicode="f" horiz-adv-x="296" d="M290 408H179V0H113V408H14V468H113V596Q113 689 156 728T270 768Q284 768 298 766T327 761L315 701Q303 704 290 706T264 708Q237 708 220 699T194 674T182 635T179 588V468H290V408Z"  />
<glyph unicode="g" horiz-adv-x="611" d="M120 240Q120 203 133 171T170 114T225 75T294 60Q330 60 362 73T420 109T458 166T471 240Q471 277 459 309T424 366T368 405T294 420Q257 420 226 406T171 367T134 310T120 240ZM108 -94Q137 -133 183 -156T287 -180Q337 -180 372 -166T428 -126T459 -68T469 4V88H467Q435 40 389 20T292 0Q241 0 197 18T119 67T67 143T48 238Q48 289 66 333T115 410T190 461T286 480Q307 480 330 476T377 462T424 435T467 390H469V468H535V4Q535 -34 526 -77T489 -156T412 -216T284 -240Q214 -240 159 -217T59 -146L108 -94Z"  />
<glyph unicode="h" horiz-adv-x="556" d="M72 756H138V393H140Q151 412 168 428T206 455T250 473T297 480Q387 480 430 433T473 297V0H407V259Q407 337 380 378T280 420Q275 420 252 416T204 394T158 340T138 240V0H72V756Z"  />
<glyph unicode="i" horiz-adv-x="240" d="M168 648Q168 627 153 614T120 600Q102 600 87 613T72 648Q72 669 87 682T120 696Q138 696 153 683T168 648ZM153 0H87V468H153V0Z"  />
<glyph unicode="j" horiz-adv-x="240" d="M168 648Q168 627 153 614T120 600Q102 600 87 613T72 648Q72 669 87 682T120 696Q138 696 153 683T168 648ZM-22 -173L-19 -174Q-11 -176 -2 -178T16 -180Q40 -180 54 -171T76 -148T85 -116T87 -82V468H153V-93Q153 -103 152 -127T140 -177T101 -221T21 -240Q-7 -240 -31 -230L-22 -173Z"  />
<glyph unicode="k" horiz-adv-x="482" d="M138 257L359 468H458L225 254L483 0H381L138 246V0H72V756H138V257Z"  />
<glyph unicode="l" horiz-adv-x="240" d="M153 0H87V756H153V0Z"  />
<glyph unicode="m" horiz-adv-x="852" d="M72 364Q72 390 71 416T67 468H138V397H140Q164 438 206 459T291 480Q310 480 331 476T373 462T410 432T440 383Q460 428 503 454T594 480Q684 480 727 433T770 297V0H704V273Q704 344 679 382T586 420Q549 420 524 406T484 367T461 313T454 249V0H388V273Q388 344 363 382T270 420Q264 420 243 416T198 394T157 340T138 240V0H72V364Z"  />
<glyph unicode="n" horiz-adv-x="556" d="M135 468Q137 449 137 431T138 393H140Q151 412 168 428T206 455T250 473T297 480Q387 480 430 433T473 297V0H407V259Q407 337 380 378T280 420Q275 420 252 416T204 394T158 340T138 240V0H72V365Q72 384 71 413T67 468H135Z"  />
<glyph unicode="o" horiz-adv-x="593" d="M473 234Q473 273 461 307T425 366T370 405T296 420Q255 420 223 406T168 366T133 307T120 234Q120 195 132 161T167 102T222 63T296 48Q337 48 369 62T425 102T460 161T473 234ZM545 234Q545 181 527 136T475 58T397 7T296 -12Q242 -12 197 6T118 58T67 136T48 234Q48 287 66 332T118 410T196 461T296 480Q351 480 396 462T475 410T526 332T545 234Z"  />
<glyph unicode="p" horiz-adv-x="611" d="M499 234Q499 273 487 307T451 366T396 405T322 420Q281 420 247 406T188 366T149 307T135 234Q135 195 149 161T188 102T247 63T322 48Q363 48 395 62T451 102T486 161T499 234ZM72 468H138V390H140Q156 414 178 431T224 459T273 475T322 480Q377 480 422 462T501 410T552 332T571 234Q571 181 553 136T501 58T423 7T322 -12Q299 -12 274 -7T224 9T178 37T140 78H138V-288H72V468Z"  />
<glyph unicode="q" horiz-adv-x="611" d="M112 234Q112 195 124 161T160 102T215 63T289 48Q329 48 363 62T423 102T462 161T476 234Q476 273 462 307T423 366T364 405T289 420Q248 420 216 406T160 366T125 307T112 234ZM539 -288H473V78H471Q455 54 433 37T387 9T338 -7T289 -12Q234 -12 189 6T110 58T59 136T40 234Q40 287 58 332T110 410T188 461T289 480Q312 480 337 475T387 459T433 431T471 390H473V468H539V-288Z"  />
<glyph unicode="r" horiz-adv-x="332" d="M79 322Q79 353 78 385T75 468H140V381H142Q149 400 162 417T193 449T236 471T292 480Q320 480 341 474L328 409Q315 414 290 414Q252 414 225 400T180 363T154 314T145 264V0H79V322Z"  />
<glyph unicode="s" horiz-adv-x="426" d="M320 357Q305 386 280 403T219 420Q202 420 185 416T153 404T131 382T122 350Q122 317 145 302T214 276L281 260Q330 249 362 216T395 132Q395 94 380 67T339 22T280 -4T213 -12Q159 -12 113 8T33 79L90 118Q110 86 140 67T213 48Q233 48 253 52T288 66T313 91T323 126Q323 161 297 176T234 201L170 216Q158 219 138 226T98 247T64 283T50 339Q50 375 64 402T103 446T159 471T223 480Q272 480 314 461T379 396L320 357Z"  />
<glyph unicode="t" horiz-adv-x="332" d="M314 408H179V132Q179 106 184 90T198 64T219 52T247 48Q264 48 282 53T315 66L318 5Q281 -12 229 -12Q210 -12 190 -7T152 12T124 50T113 113V408H14V468H113V600H179V468H314V408Z"  />
<glyph unicode="u" horiz-adv-x="556" d="M410 0Q408 19 408 37T407 75H405Q394 56 377 40T339 13T295 -5T248 -12Q158 -12 115 35T72 171V468H138V209Q138 170 144 140T164 90T203 59T265 48Q270 48 293 52T341 74T387 128T407 228V468H473V103Q473 84 474 55T478 0H410Z"  />
<glyph unicode="v" horiz-adv-x="482" d="M278 0H204L14 468H93L242 74H244L393 468H468L278 0Z"  />
<glyph unicode="w" horiz-adv-x="722" d="M92 468L200 88H202L327 468H395L520 88H522L630 468H708L560 0H486L362 384H360L236 0H162L14 468H92Z"  />
<glyph unicode="x" horiz-adv-x="482" d="M193 250L23 468H113L243 293L367 468H449L286 250L482 0H392L235 205L84 0H0L193 250Z"  />
<glyph unicode="y" horiz-adv-x="482" d="M246 81L389 468H469L235 -122Q214 -176 182 -208T88 -240Q73 -240 58 -239T27 -233L34 -169Q55 -180 84 -180Q119 -180 139 -158T174 -96L208 -6L16 468H99L246 81Z"  />
<glyph unicode="z" horiz-adv-x="426" d="M393 420L119 60H403V0H23V48L297 408H37V468H393V420Z"  />
<glyph unicode="{" horiz-adv-x="260" d="M12 318Q46 318 73 347T101 429V607Q101 642 110 666T134 704T168 725T209 732H273V672H217Q199 672 189 665T174 645T168 618T167 589V417Q167 381 157 357T132 318T102 297T78 289V287Q87 286 102 280T131 259T156 220T167 159V-13Q167 -27 168 -42T173 -69T188 -88T217 -96H273V-156H209Q188 -156 169 -150T134 -129T110 -90T101 -31V147Q101 200 74 229T12 258V318Z"  />
<glyph unicode="|" horiz-adv-x="222" d="M81 756H141V-18H81V756Z"  />
<glyph unicode="}" horiz-adv-x="260" d="M248 258Q214 258 187 229T159 147V-31Q159 -66 150 -90T126 -128T92 -149T51 -156H-13V-96H43Q61 -96 71 -89T86 -69T92 -42T93 -13V159Q93 195 103 219T128 258T158 279T182 287V289Q173 290 158 296T129 317T104 356T93 417V589Q93 603 92 618T87 645T72 664T43 672H-13V732H51Q72 732 91 726T126 705T150 666T159 607V429Q159 376 186 347T248 318V258Z"  />
<glyph unicode="~" horiz-adv-x="666" d="M577 328Q566 312 553 296T523 266T486 244T441 235Q425 235 414 235T392 239T368 248T337 264Q312 278 285 294T230 311Q213 311 198 304T170 285T148 261T131 238L89 278Q100 294 113 310T143 340T180 362T225 371Q241 371 252 371T274 367T298 358T329 342Q354 328 381 312T436 295Q453 295 468 302T496 321T518 345T535 368L577 328Z"  />
<glyph unicode="&#xA0;" horiz-adv-x="278" />
<glyph unicode="&#xA1;" horiz-adv-x="278" d="M85 432Q85 453 100 469T139 486Q163 486 178 470T193 432Q193 411 178 395T139 378Q115 378 100 394T85 432ZM103 288H175V-228H103V288Z"  />
<glyph unicode="&#xA2;" horiz-adv-x="556" d="M336 49Q372 51 400 68T443 110L497 69Q465 31 423 11T336 -11V-72H288V-9Q239 -4 200 16T134 69T93 144T78 234Q78 282 92 324T134 398T200 451T288 477V540H336V479Q381 477 423 457T497 399L443 358Q428 382 400 399T336 419V49ZM288 417Q256 411 231 395T187 355T160 300T150 234Q150 199 159 168T187 113T230 73T288 51V417Z"  />
<glyph unicode="&#xA3;" horiz-adv-x="556" d="M426 335H258V60H511V0H84V60H186V335H90V395H186V482Q186 530 196 573T230 648T295 700T398 720Q442 720 482 706T553 660L506 609Q486 632 458 646T395 660Q349 660 322 641T281 594T262 533T258 476V395H426V335Z"  />
<glyph unicode="&#xA4;" horiz-adv-x="556" d="M97 354Q97 315 111 281T150 221T208 180T279 165Q316 165 349 180T406 220T445 280T459 354Q459 393 445 427T407 487T349 528T279 543Q241 543 208 528T150 488T111 428T97 354ZM472 506Q498 473 512 435T525 354Q526 312 512 274T472 202L525 149L481 105L428 158Q395 132 357 119T278 105Q238 105 200 118T128 158L75 105L31 149L84 202Q58 235 44 273T31 354Q30 396 44 434T84 506L31 559L75 603L128 550Q161 576 199 589T278 603Q318 603 356 590T428 550L481 603L525 559L472 506Z"  />
<glyph unicode="&#xA5;" horiz-adv-x="556" d="M242 223V300L235 312H79V366H203L-2 708H83L278 368L473 708H558L354 366H477V312H321L314 300V223H477V169H314V0H242V169H79V223H242Z"  />
<glyph unicode="&#xA6;" horiz-adv-x="222" d="M141 454H81V756H141V454ZM81 284H141V-18H81V284Z"  />
<glyph unicode="&#xA7;" horiz-adv-x="556" d="M225 397Q196 385 174 365T151 313Q151 292 161 277T187 250T221 229T255 213L321 181Q334 186 347 195T370 215T387 241T394 270Q394 292 386 308T364 338T333 360T299 378L242 404L225 397ZM394 596Q389 606 381 617T359 637T327 653T286 660Q251 660 230 649T198 623T182 593T178 570Q178 533 201 513T259 475L369 419Q411 397 438 365T466 280Q466 234 442 202T379 149Q417 123 432 95T448 24Q448 -18 433 -48T391 -99T330 -129T260 -139Q193 -139 140 -111T62 -24L128 8Q145 -39 181 -59T260 -79Q280 -79 300 -74T338 -57T365 -26T376 23Q376 54 357 74T306 111L169 178Q130 197 105 228T79 308Q79 358 108 390T183 442Q173 449 160 458T134 482T114 515T106 562Q106 601 120 630T159 680T214 710T281 720Q348 720 393 693T453 626L394 596Z"  />
<glyph unicode="&#xA8;" horiz-adv-x="240" d="M165 647Q165 667 179 682T216 698Q239 698 253 683T267 647Q267 627 253 612T216 596Q193 596 179 611T165 647ZM-27 647Q-27 667 -13 682T24 698Q47 698 61 683T75 647Q75 627 61 612T24 596Q1 596 -13 611T-27 647Z"  />
<glyph unicode="&#xA9;" horiz-adv-x="800" d="M85 352Q85 285 109 228T177 128T277 61T400 36Q466 36 523 60T623 128T690 229T715 356Q715 423 691 481T623 581T523 648T400 672Q334 672 277 648T177 581T110 480T85 352ZM25 352Q25 432 55 500T136 619T255 697T400 726Q476 726 544 698T664 620T745 503T775 356Q775 276 745 208T664 89T545 11T400 -18Q323 -18 255 10T136 88T55 205T25 352ZM602 282Q585 210 535 168T415 126Q364 126 323 143T253 191T208 263T192 354Q192 403 207 445T250 517T320 564T412 581Q448 581 480 572T537 543T579 496T601 429H545Q537 471 501 499T413 527Q375 527 345 514T295 477T263 423T252 356Q252 321 263 290T296 234T348 195T415 180Q467 180 502 209T545 282H602Z"  />
<glyph unicode="&#xAA;" horiz-adv-x="337" d="M215 559Q202 559 181 558T140 553T106 538T91 510Q91 490 109 481T150 472Q176 472 191 480T215 502T225 530T228 559H215ZM136 424Q116 424 97 429T64 444T40 470T31 507Q31 530 40 548T69 580T122 600T206 607H228V615Q228 672 164 672Q137 672 115 664T75 642L43 679Q69 704 99 712T162 720Q199 720 223 711T262 688T282 658T288 630V493Q288 476 289 460T293 430H239L236 466H235Q221 446 196 435T136 424Z"  />
<glyph unicode="&#xAB;" horiz-adv-x="482" d="M306 240L421 64L374 31L234 240L374 449L421 416L306 240ZM124 240L239 64L192 31L52 240L192 449L239 416L124 240Z"  />
<glyph unicode="&#xAC;" horiz-adv-x="666" d="M588 130H528V348H78V408H588V130Z"  />
<glyph unicode="&#xAD;" horiz-adv-x="333" d="M295 207H38V273H295V207Z"  />
<glyph unicode="&#xAE;" horiz-adv-x="800" d="M85 352Q85 285 109 228T177 128T277 61T400 36Q466 36 523 60T623 128T690 229T715 356Q715 423 691 481T623 581T523 648T400 672Q334 672 277 648T177 581T110 480T85 352ZM25 352Q25 432 55 500T136 619T255 697T400 726Q476 726 544 698T664 620T745 503T775 356Q775 276 745 208T664 89T545 11T400 -18Q323 -18 255 10T136 88T55 205T25 352ZM321 375H395Q417 375 438 376T475 385T501 406T511 446Q511 468 503 481T480 502T449 511T414 513H321V375ZM261 567H419Q497 567 534 538T571 443Q571 385 538 358T457 326L581 136H516L398 321H321V136H261V567Z"  />
<glyph unicode="&#xAF;" horiz-adv-x="240" d="M255 600H-15V654H255V600Z"  />
<glyph unicode="&#xB0;" horiz-adv-x="400" d="M301 571Q301 592 293 610T272 642T240 664T200 672Q179 672 161 664T129 643T107 611T99 571Q99 550 107 532T128 500T160 478T200 470Q221 470 239 478T271 499T293 531T301 571ZM349 571Q349 539 338 512T307 464T260 433T200 422Q168 422 141 433T93 464T62 511T51 571Q51 603 62 630T93 678T140 709T200 720Q232 720 259 709T307 678T338 631T349 571Z"  />
<glyph unicode="&#xB1;" horiz-adv-x="666" d="M78 108H588V48H78V108ZM78 407H303V563H363V407H588V347H363V196H303V347H78V407Z"  />
<glyph unicode="&#xB2;" horiz-adv-x="361" d="M327 289H34V346L205 510Q225 530 244 553T263 606Q263 618 256 629T239 648T214 661T187 666Q154 666 131 650T99 610L43 619Q53 668 91 694T184 720Q212 720 237 713T281 693T311 658T323 610Q323 586 315 565T294 526T264 492T230 460L100 343H327V289Z"  />
<glyph unicode="&#xB3;" horiz-adv-x="361" d="M130 537H154Q195 537 224 553T254 604Q254 631 234 648T182 666Q153 666 135 657T96 620L49 653Q75 691 107 705T181 720Q208 720 232 713T274 691T303 657T314 610Q314 575 291 549T232 511V509Q278 501 302 473T327 405Q327 376 316 353T284 315T237 291T180 283Q129 283 92 303T34 369L86 399Q98 369 120 353T184 337Q199 337 213 343T240 358T259 380T267 406Q267 418 263 431T246 456T213 475T159 483H130V537Z"  />
<glyph unicode="&#xB4;" horiz-adv-x="240" d="M118 564H59L159 708H250L118 564Z"  />
<glyph unicode="&#xB5;" horiz-adv-x="556" d="M72 468H138V209Q138 123 165 86T265 48Q295 48 321 60T366 95T396 151T407 228V468H473V103Q473 77 474 52T478 0H407V76H405Q394 58 377 42T339 14T295 -5T248 -12Q179 -12 138 17V-228H72V468Z"  />
<glyph unicode="&#xB6;" horiz-adv-x="600" d="M513 -126H447V654H323V-126H257V316Q211 316 173 330T107 370T64 429T48 502Q48 600 109 654T276 708H513V-126Z"  />
<glyph unicode="&#xB7;" horiz-adv-x="278" d="M193 314Q193 293 178 277T139 260Q115 260 100 276T85 314Q85 335 100 351T139 368Q163 368 178 352T193 314Z"  />
<glyph unicode="&#xB8;" horiz-adv-x="240" d="M111 -60L113 -61Q121 -58 129 -56T149 -54Q179 -54 202 -73T226 -129Q226 -152 216 -169T189 -196T152 -212T111 -217Q59 -217 14 -193L30 -157Q64 -175 104 -175Q126 -175 146 -165T166 -130Q166 -126 164 -119T157 -106T142 -95T117 -90Q103 -90 92 -93T71 -101L53 -84L115 0H156L111 -60Z"  />
<glyph unicode="&#xB9;" horiz-adv-x="361" d="M225 289H165V654L83 587L54 625L171 714H225V289Z"  />
<glyph unicode="&#xBA;" horiz-adv-x="385" d="M294 571Q294 592 287 610T266 642T233 664T192 672Q147 672 119 643T91 571Q91 530 119 501T192 472Q214 472 233 480T265 501T286 533T294 571ZM354 571Q354 539 342 513T309 466T258 435T192 424Q157 424 128 435T77 466T43 512T31 571Q31 603 43 630T76 678T127 709T192 720Q228 720 257 709T308 678T342 631T354 571Z"  />
<glyph unicode="&#xBB;" horiz-adv-x="482" d="M176 240L61 416L108 449L248 240L108 31L61 64L176 240ZM358 240L243 416L290 449L430 240L290 31L243 64L358 240Z"  />
<glyph unicode="&#xBC;" horiz-adv-x="834" d="M650 365H648L512 148H650V365ZM710 148H770V94H710V0H650V94H458V156L637 425H710V148ZM235 289H175V654L93 587L64 625L181 714H235V289ZM153 0L604 740L655 709L205 -32L153 0Z"  />
<glyph unicode="&#xBD;" horiz-adv-x="834" d="M795 0H502V57L673 221Q693 241 712 264T731 317Q731 329 724 340T707 359T682 372T655 377Q622 377 599 361T567 321L511 330Q521 379 559 405T652 431Q680 431 705 424T749 404T779 369T791 321Q791 297 783 276T762 237T732 203T698 171L568 54H795V0ZM210 289H150V654L68 587L39 625L156 714H210V289ZM128 0L579 740L630 709L180 -32L128 0Z"  />
<glyph unicode="&#xBE;" horiz-adv-x="834" d="M670 365H668L532 148H670V365ZM730 148H790V94H730V0H670V94H478V156L657 425H730V148ZM139 537H163Q204 537 233 554T263 608Q263 632 243 649T191 666Q162 666 144 657T105 620L58 653Q84 691 116 705T190 720Q217 720 241 713T283 691T312 657T323 610Q323 575 300 549T241 511V509Q287 501 311 473T336 405Q336 376 325 353T293 315T246 291T189 283Q138 283 101 303T44 369L95 399Q107 369 129 353T193 337Q208 337 222 343T249 358T268 380T276 406Q276 418 272 431T255 456T222 475T168 483H139V537ZM193 0L644 740L695 709L245 -32L193 0Z"  />
<glyph unicode="&#xBF;" horiz-adv-x="482" d="M182 432Q182 453 197 469T236 486Q260 486 275 470T290 432Q290 411 275 395T236 378Q212 378 197 394T182 432ZM206 288H278V205Q277 177 265 155T235 114T196 76T158 38T128 -6T116 -59Q116 -110 148 -142T233 -174Q284 -174 317 -144T360 -65L435 -74Q429 -113 412 -144T368 -196T307 -229T234 -240Q194 -240 159 -229T99 -195T59 -140T44 -65Q44 -23 56 6T86 56T125 95T164 131T194 175T206 237V288Z"  />
<glyph unicode="&#xC0;" horiz-adv-x="686" d="M189 252H496L343 624L189 252ZM84 0H0L308 708H378L686 0H602L524 186H162L84 0ZM213 883H304L404 739H345L213 883Z"  />
<glyph unicode="&#xC1;" horiz-adv-x="686" d="M189 252H496L343 624L189 252ZM84 0H0L308 708H378L686 0H602L524 186H162L84 0ZM341 739H282L382 883H473L341 739Z"  />
<glyph unicode="&#xC2;" horiz-adv-x="686" d="M189 252H496L343 624L189 252ZM84 0H0L308 708H378L686 0H602L524 186H162L84 0ZM492 739H426L343 847L260 739H194L303 883H383L492 739Z"  />
<glyph unicode="&#xC3;" horiz-adv-x="686" d="M189 252H496L343 624L189 252ZM84 0H0L308 708H378L686 0H602L524 186H162L84 0ZM181 751Q184 770 190 789T208 822T234 846T273 855Q291 855 309 848T346 832Q364 824 381 817T413 809Q436 809 446 824T462 859H505Q502 839 496 821T478 788T451 764T413 755Q395 755 377 762T340 778Q323 787 306 794T273 801Q250 801 240 786T224 751H181Z"  />
<glyph unicode="&#xC4;" horiz-adv-x="686" d="M189 252H496L343 624L189 252ZM84 0H0L308 708H378L686 0H602L524 186H162L84 0ZM388 822Q388 842 402 857T439 873Q462 873 476 858T490 822Q490 802 476 787T439 771Q416 771 402 786T388 822ZM196 822Q196 842 210 857T247 873Q270 873 284 858T298 822Q298 802 284 787T247 771Q224 771 210 786T196 822Z"  />
<glyph unicode="&#xC5;" horiz-adv-x="686" d="M189 252H496L343 624L189 252ZM84 0H0L308 708H378L686 0H602L524 186H162L84 0ZM403 825Q403 850 386 867T343 884Q318 884 301 867T283 825Q283 800 300 783T343 766Q368 766 385 783T403 825ZM439 825Q439 805 432 788T411 757T380 737T343 730Q323 730 306 737T276 757T255 787T247 825Q247 845 254 862T275 892T306 912T343 920Q362 920 379 913T410 893T431 863T439 825Z"  />
<glyph unicode="&#xC6;" horiz-adv-x="944" d="M511 264V642H500L255 264H511ZM583 401H859V335H583V66H889V0H511V198H213L85 0H0L461 708H877V642H583V401Z"  />
<glyph unicode="&#xC7;" horiz-adv-x="704" d="M363 -60L365 -61Q373 -58 381 -56T401 -54Q431 -54 454 -73T478 -129Q478 -152 468 -169T441 -196T404 -212T363 -217Q311 -217 266 -193L282 -157Q316 -175 356 -175Q378 -175 398 -165T418 -130Q418 -126 416 -119T409 -106T394 -95T369 -90Q355 -90 344 -93T323 -101L305 -84L357 -13Q312 -7 270 10Q203 38 154 87T76 205T48 354Q48 435 76 503T153 620T270 698T417 726Q483 726 549 700T662 614L599 567Q588 584 569 601T526 631T473 652T417 660Q349 660 295 635T204 568T146 471T126 354Q126 293 146 238T203 140T295 73T417 48Q445 48 472 53T526 70T576 102T620 154L679 112Q661 85 635 61T574 20T501 -8T417 -18Q406 -18 395 -17L363 -60Z"  />
<glyph unicode="&#xC8;" horiz-adv-x="593" d="M168 66H547V0H96V708H535V642H168V401H511V335H168V66ZM167 883H258L358 739H299L167 883Z"  />
<glyph unicode="&#xC9;" horiz-adv-x="593" d="M168 66H547V0H96V708H535V642H168V401H511V335H168V66ZM295 739H236L336 883H427L295 739Z"  />
<glyph unicode="&#xCA;" horiz-adv-x="593" d="M168 66H547V0H96V708H535V642H168V401H511V335H168V66ZM446 739H380L297 847L214 739H148L257 883H337L446 739Z"  />
<glyph unicode="&#xCB;" horiz-adv-x="593" d="M168 66H547V0H96V708H535V642H168V401H511V335H168V66ZM342 822Q342 842 356 857T393 873Q416 873 430 858T444 822Q444 802 430 787T393 771Q370 771 356 786T342 822ZM150 822Q150 842 164 857T201 873Q224 873 238 858T252 822Q252 802 238 787T201 771Q178 771 164 786T150 822Z"  />
<glyph unicode="&#xCC;" horiz-adv-x="264" d="M168 0H96V708H168V0ZM2 883H93L193 739H134L2 883Z"  />
<glyph unicode="&#xCD;" horiz-adv-x="264" d="M168 0H96V708H168V0ZM130 739H71L171 883H262L130 739Z"  />
<glyph unicode="&#xCE;" horiz-adv-x="264" d="M168 0H96V708H168V0ZM281 739H215L132 847L49 739H-17L92 883H172L281 739Z"  />
<glyph unicode="&#xCF;" horiz-adv-x="264" d="M168 0H96V708H168V0ZM177 822Q177 842 191 857T228 873Q251 873 265 858T279 822Q279 802 265 787T228 771Q205 771 191 786T177 822ZM-15 822Q-15 842 -1 857T36 873Q59 873 73 858T87 822Q87 802 73 787T36 771Q13 771 -1 786T-15 822Z"  />
<glyph unicode="&#xD0;" horiz-adv-x="741" d="M158 66H298Q379 66 438 90T537 155T596 247T615 354Q615 409 596 460T538 552T439 617T298 642H158V401H416V347H158V66ZM86 347H13V401H86V708H321Q387 708 453 686T573 620T660 509T693 354Q693 265 660 199T574 89T454 22T321 0H86V347Z"  />
<glyph unicode="&#xD1;" horiz-adv-x="778" d="M608 108H610V708H682V0H592L170 606H168V0H96V708H186L608 108ZM227 751Q230 770 236 789T254 822T280 846T319 855Q337 855 355 848T392 832Q410 824 427 817T459 809Q482 809 492 824T508 859H551Q548 839 542 821T524 788T497 764T459 755Q441 755 423 762T386 778Q369 787 352 794T319 801Q296 801 286 786T270 751H227Z"  />
<glyph unicode="&#xD2;" horiz-adv-x="834" d="M708 354Q708 415 688 470T631 568T539 635T417 660Q349 660 295 635T204 568T146 471T126 354Q126 293 146 238T203 140T295 73T417 48Q485 48 539 73T630 140T688 237T708 354ZM786 354Q786 273 758 205T681 88T564 10T417 -18Q338 -18 271 10T154 87T76 205T48 354Q48 435 76 503T153 620T270 698T417 726Q496 726 563 698T680 621T758 503T786 354ZM287 883H378L478 739H419L287 883Z"  />
<glyph unicode="&#xD3;" horiz-adv-x="834" d="M708 354Q708 415 688 470T631 568T539 635T417 660Q349 660 295 635T204 568T146 471T126 354Q126 293 146 238T203 140T295 73T417 48Q485 48 539 73T630 140T688 237T708 354ZM786 354Q786 273 758 205T681 88T564 10T417 -18Q338 -18 271 10T154 87T76 205T48 354Q48 435 76 503T153 620T270 698T417 726Q496 726 563 698T680 621T758 503T786 354ZM415 739H356L456 883H547L415 739Z"  />
<glyph unicode="&#xD4;" horiz-adv-x="834" d="M708 354Q708 415 688 470T631 568T539 635T417 660Q349 660 295 635T204 568T146 471T126 354Q126 293 146 238T203 140T295 73T417 48Q485 48 539 73T630 140T688 237T708 354ZM786 354Q786 273 758 205T681 88T564 10T417 -18Q338 -18 271 10T154 87T76 205T48 354Q48 435 76 503T153 620T270 698T417 726Q496 726 563 698T680 621T758 503T786 354ZM566 739H500L417 847L334 739H268L377 883H457L566 739Z"  />
<glyph unicode="&#xD5;" horiz-adv-x="834" d="M708 354Q708 415 688 470T631 568T539 635T417 660Q349 660 295 635T204 568T146 471T126 354Q126 293 146 238T203 140T295 73T417 48Q485 48 539 73T630 140T688 237T708 354ZM786 354Q786 273 758 205T681 88T564 10T417 -18Q338 -18 271 10T154 87T76 205T48 354Q48 435 76 503T153 620T270 698T417 726Q496 726 563 698T680 621T758 503T786 354ZM255 751Q258 770 264 789T282 822T308 846T347 855Q365 855 383 848T420 832Q438 824 455 817T487 809Q510 809 520 824T536 859H579Q576 839 570 821T552 788T525 764T487 755Q469 755 451 762T414 778Q397 787 380 794T347 801Q324 801 314 786T298 751H255Z"  />
<glyph unicode="&#xD6;" horiz-adv-x="834" d="M708 354Q708 415 688 470T631 568T539 635T417 660Q349 660 295 635T204 568T146 471T126 354Q126 293 146 238T203 140T295 73T417 48Q485 48 539 73T630 140T688 237T708 354ZM786 354Q786 273 758 205T681 88T564 10T417 -18Q338 -18 271 10T154 87T76 205T48 354Q48 435 76 503T153 620T270 698T417 726Q496 726 563 698T680 621T758 503T786 354ZM462 822Q462 842 476 857T513 873Q536 873 550 858T564 822Q564 802 550 787T513 771Q490 771 476 786T462 822ZM270 822Q270 842 284 857T321 873Q344 873 358 858T372 822Q372 802 358 787T321 771Q298 771 284 786T270 822Z"  />
<glyph unicode="&#xD7;" horiz-adv-x="666" d="M333 346L491 505L534 463L375 303L534 144L491 101L333 260L174 101L132 144L291 303L132 463L174 505L333 346Z"  />
<glyph unicode="&#xD8;" horiz-adv-x="834" d="M605 593Q569 625 522 642T417 660Q349 660 295 635T204 568T146 471T126 354Q126 297 143 245T194 152L605 593ZM229 115Q265 83 312 66T417 48Q485 48 539 73T630 140T688 237T708 354Q708 411 691 462T640 556L229 115ZM690 610Q736 561 761 496T786 354Q786 273 758 205T681 88T564 10T417 -18Q348 -18 288 3T181 63L105 -18L68 16L144 98Q98 147 73 212T48 354Q48 435 76 503T153 620T270 698T417 726Q486 726 545 705T653 645L729 726L766 692L690 610Z"  />
<glyph unicode="&#xD9;" horiz-adv-x="686" d="M602 264Q602 220 592 171T552 79T473 10T343 -18Q263 -18 213 9T134 79T95 170T84 264V708H156V272Q156 221 166 185T192 123T229 84T270 61T310 51T343 48Q356 48 375 50T415 61T456 83T493 123T520 184T530 272V708H602V264ZM213 883H304L404 739H345L213 883Z"  />
<glyph unicode="&#xDA;" horiz-adv-x="686" d="M602 264Q602 220 592 171T552 79T473 10T343 -18Q263 -18 213 9T134 79T95 170T84 264V708H156V272Q156 221 166 185T192 123T229 84T270 61T310 51T343 48Q356 48 375 50T415 61T456 83T493 123T520 184T530 272V708H602V264ZM341 739H282L382 883H473L341 739Z"  />
<glyph unicode="&#xDB;" horiz-adv-x="686" d="M602 264Q602 220 592 171T552 79T473 10T343 -18Q263 -18 213 9T134 79T95 170T84 264V708H156V272Q156 221 166 185T192 123T229 84T270 61T310 51T343 48Q356 48 375 50T415 61T456 83T493 123T520 184T530 272V708H602V264ZM492 739H426L343 847L260 739H194L303 883H383L492 739Z"  />
<glyph unicode="&#xDC;" horiz-adv-x="686" d="M602 264Q602 220 592 171T552 79T473 10T343 -18Q263 -18 213 9T134 79T95 170T84 264V708H156V272Q156 221 166 185T192 123T229 84T270 61T310 51T343 48Q356 48 375 50T415 61T456 83T493 123T520 184T530 272V708H602V264ZM388 822Q388 842 402 857T439 873Q462 873 476 858T490 822Q490 802 476 787T439 771Q416 771 402 786T388 822ZM196 822Q196 842 210 857T247 873Q270 873 284 858T298 822Q298 802 284 787T247 771Q224 771 210 786T196 822Z"  />
<glyph unicode="&#xDD;" horiz-adv-x="574" d="M323 0H251V305L-14 708H76L287 374L498 708H588L323 305V0ZM285 739H226L326 883H417L285 739Z"  />
<glyph unicode="&#xDE;" horiz-adv-x="574" d="M168 239H284Q312 239 343 242T399 257T440 295T457 363Q457 406 441 430T399 467T343 483T284 486H168V239ZM96 708H168V552H328Q372 552 410 541T475 506T519 447T535 363Q535 315 519 280T476 220T410 185T328 173H168V0H96V708Z"  />
<glyph unicode="&#xDF;" horiz-adv-x="593" d="M150 0H84V544Q84 588 94 628T129 700T194 749T295 768Q335 768 370 756T430 722T471 666T486 591Q486 474 370 432V430Q414 426 446 408T500 362T531 298T541 223Q541 170 524 127T476 52T401 5T304 -12Q290 -12 275 -11T246 -4V53Q258 50 270 49T294 48Q374 48 421 94T469 224Q469 315 415 357T268 399V459Q298 459 325 465T371 486T402 524T414 582Q414 642 378 675T291 708Q251 708 224 693T181 655T157 604T150 550V0Z"  />
<glyph unicode="&#xE0;" horiz-adv-x="519" d="M338 233Q313 233 276 231T204 219T145 189T120 134Q120 111 129 95T155 68T190 53T230 48Q266 48 292 60T337 92T363 140T372 199V233H338ZM372 287V299Q372 420 252 420Q170 420 109 365L69 412Q135 480 267 480Q301 480 332 470T387 440T424 388T438 314V105Q438 78 440 49T446 0H382Q379 17 378 37T376 76H374Q345 29 306 9T209 -12Q178 -12 149 -4T98 22T62 65T48 125Q48 182 77 214T151 263T246 283T339 287H372ZM130 708H221L321 564H262L130 708Z"  />
<glyph unicode="&#xE1;" horiz-adv-x="519" d="M338 233Q313 233 276 231T204 219T145 189T120 134Q120 111 129 95T155 68T190 53T230 48Q266 48 292 60T337 92T363 140T372 199V233H338ZM372 287V299Q372 420 252 420Q170 420 109 365L69 412Q135 480 267 480Q301 480 332 470T387 440T424 388T438 314V105Q438 78 440 49T446 0H382Q379 17 378 37T376 76H374Q345 29 306 9T209 -12Q178 -12 149 -4T98 22T62 65T48 125Q48 182 77 214T151 263T246 283T339 287H372ZM258 564H199L299 708H390L258 564Z"  />
<glyph unicode="&#xE2;" horiz-adv-x="519" d="M338 233Q313 233 276 231T204 219T145 189T120 134Q120 111 129 95T155 68T190 53T230 48Q266 48 292 60T337 92T363 140T372 199V233H338ZM372 287V299Q372 420 252 420Q170 420 109 365L69 412Q135 480 267 480Q301 480 332 470T387 440T424 388T438 314V105Q438 78 440 49T446 0H382Q379 17 378 37T376 76H374Q345 29 306 9T209 -12Q178 -12 149 -4T98 22T62 65T48 125Q48 182 77 214T151 263T246 283T339 287H372ZM409 564H343L260 672L177 564H111L220 708H300L409 564Z"  />
<glyph unicode="&#xE3;" horiz-adv-x="519" d="M338 233Q313 233 276 231T204 219T145 189T120 134Q120 111 129 95T155 68T190 53T230 48Q266 48 292 60T337 92T363 140T372 199V233H338ZM372 287V299Q372 420 252 420Q170 420 109 365L69 412Q135 480 267 480Q301 480 332 470T387 440T424 388T438 314V105Q438 78 440 49T446 0H382Q379 17 378 37T376 76H374Q345 29 306 9T209 -12Q178 -12 149 -4T98 22T62 65T48 125Q48 182 77 214T151 263T246 283T339 287H372ZM98 576Q101 595 107 614T125 647T151 671T190 680Q208 680 226 673T263 657Q281 649 298 642T330 634Q353 634 363 649T379 684H422Q419 664 413 646T395 613T368 589T330 580Q312 580 294 587T257 603Q240 612 223 619T190 626Q167 626 157 611T141 576H98Z"  />
<glyph unicode="&#xE4;" horiz-adv-x="519" d="M338 233Q313 233 276 231T204 219T145 189T120 134Q120 111 129 95T155 68T190 53T230 48Q266 48 292 60T337 92T363 140T372 199V233H338ZM372 287V299Q372 420 252 420Q170 420 109 365L69 412Q135 480 267 480Q301 480 332 470T387 440T424 388T438 314V105Q438 78 440 49T446 0H382Q379 17 378 37T376 76H374Q345 29 306 9T209 -12Q178 -12 149 -4T98 22T62 65T48 125Q48 182 77 214T151 263T246 283T339 287H372ZM305 647Q305 667 319 682T356 698Q379 698 393 683T407 647Q407 627 393 612T356 596Q333 596 319 611T305 647ZM113 647Q113 667 127 682T164 698Q187 698 201 683T215 647Q215 627 201 612T164 596Q141 596 127 611T113 647Z"  />
<glyph unicode="&#xE5;" horiz-adv-x="519" d="M338 233Q313 233 276 231T204 219T145 189T120 134Q120 111 129 95T155 68T190 53T230 48Q266 48 292 60T337 92T363 140T372 199V233H338ZM372 287V299Q372 420 252 420Q170 420 109 365L69 412Q135 480 267 480Q301 480 332 470T387 440T424 388T438 314V105Q438 78 440 49T446 0H382Q379 17 378 37T376 76H374Q345 29 306 9T209 -12Q178 -12 149 -4T98 22T62 65T48 125Q48 182 77 214T151 263T246 283T339 287H372ZM320 650Q320 675 303 692T260 709Q235 709 218 692T200 650Q200 625 217 608T260 591Q285 591 302 608T320 650ZM356 650Q356 630 349 613T328 582T297 562T260 555Q240 555 223 562T193 582T172 612T164 650Q164 670 171 687T192 717T223 737T260 745Q279 745 296 738T327 718T348 688T356 650Z"  />
<glyph unicode="&#xE6;" horiz-adv-x="852" d="M738 270Q738 303 728 330T699 378T654 409T594 420Q564 420 539 409T494 377T464 330T453 270H738ZM250 216Q229 216 206 212T164 199T133 174T120 134Q120 111 129 95T155 68T190 53T230 48Q266 48 295 60T344 93T376 143T387 207V216H250ZM453 216V207Q453 175 462 146T489 96T532 61T590 48Q620 48 642 54T682 70T712 95T736 124L788 83Q750 34 699 11T592 -12Q539 -12 491 14T417 97Q382 37 333 13T209 -12Q178 -12 149 -4T98 22T62 65T48 125Q48 172 69 200T123 244T196 265T276 270H387V299Q386 336 372 359T339 396T300 415T267 420Q184 420 125 364L84 412Q118 444 165 462T270 480Q324 480 366 454T425 390Q448 432 494 456T592 480Q644 480 683 462T750 413T790 338T804 246V216H453Z"  />
<glyph unicode="&#xE7;" horiz-adv-x="482" d="M252 -60L254 -61Q262 -58 270 -56T290 -54Q320 -54 343 -73T367 -129Q367 -152 357 -169T330 -196T293 -212T252 -217Q200 -217 155 -193L171 -157Q205 -175 245 -175Q267 -175 287 -165T307 -130Q307 -126 305 -119T298 -106T283 -95T258 -90Q244 -90 233 -93T212 -101L194 -84L249 -9Q219 -5 193 5Q147 24 115 57T65 135T48 234Q48 287 65 332T114 411T193 462T296 480Q344 479 388 460T467 399L413 358Q396 384 366 402T296 420Q255 421 223 407T167 368T132 309T120 234Q120 194 132 160T167 100T222 61T296 48Q335 48 365 66T413 110L467 69Q432 28 388 9T296 -12H288L252 -60Z"  />
<glyph unicode="&#xE8;" horiz-adv-x="556" d="M436 270Q436 337 396 378T284 420Q252 420 222 408T170 374T134 326T120 270H436ZM118 216Q121 181 135 150T172 97T225 61T290 48Q343 48 381 72T440 129L491 87Q449 34 399 11T290 -12Q238 -12 194 6T117 58T67 136T48 234Q48 287 66 332T116 410T191 461T284 480Q337 480 379 461T449 411T493 337T508 246V216H118ZM148 708H239L339 564H280L148 708Z"  />
<glyph unicode="&#xE9;" horiz-adv-x="556" d="M436 270Q436 337 396 378T284 420Q252 420 222 408T170 374T134 326T120 270H436ZM118 216Q121 181 135 150T172 97T225 61T290 48Q343 48 381 72T440 129L491 87Q449 34 399 11T290 -12Q238 -12 194 6T117 58T67 136T48 234Q48 287 66 332T116 410T191 461T284 480Q337 480 379 461T449 411T493 337T508 246V216H118ZM276 564H217L317 708H408L276 564Z"  />
<glyph unicode="&#xEA;" horiz-adv-x="556" d="M436 270Q436 337 396 378T284 420Q252 420 222 408T170 374T134 326T120 270H436ZM118 216Q121 181 135 150T172 97T225 61T290 48Q343 48 381 72T440 129L491 87Q449 34 399 11T290 -12Q238 -12 194 6T117 58T67 136T48 234Q48 287 66 332T116 410T191 461T284 480Q337 480 379 461T449 411T493 337T508 246V216H118ZM427 564H361L278 672L195 564H129L238 708H318L427 564Z"  />
<glyph unicode="&#xEB;" horiz-adv-x="556" d="M436 270Q436 337 396 378T284 420Q252 420 222 408T170 374T134 326T120 270H436ZM118 216Q121 181 135 150T172 97T225 61T290 48Q343 48 381 72T440 129L491 87Q449 34 399 11T290 -12Q238 -12 194 6T117 58T67 136T48 234Q48 287 66 332T116 410T191 461T284 480Q337 480 379 461T449 411T493 337T508 246V216H118ZM323 647Q323 667 337 682T374 698Q397 698 411 683T425 647Q425 627 411 612T374 596Q351 596 337 611T323 647ZM131 647Q131 667 145 682T182 698Q205 698 219 683T233 647Q233 627 219 612T182 596Q159 596 145 611T131 647Z"  />
<glyph unicode="&#xEC;" horiz-adv-x="240" d="M153 0H87V468H153V0ZM-10 708H81L181 564H122L-10 708Z"  />
<glyph unicode="&#xED;" horiz-adv-x="240" d="M153 0H87V468H153V0ZM118 564H59L159 708H250L118 564Z"  />
<glyph unicode="&#xEE;" horiz-adv-x="240" d="M153 0H87V468H153V0ZM269 564H203L120 672L37 564H-29L80 708H160L269 564Z"  />
<glyph unicode="&#xEF;" horiz-adv-x="240" d="M153 0H87V468H153V0ZM165 647Q165 667 179 682T216 698Q239 698 253 683T267 647Q267 627 253 612T216 596Q193 596 179 611T165 647ZM-27 647Q-27 667 -13 682T24 698Q47 698 61 683T75 647Q75 627 61 612T24 596Q1 596 -13 611T-27 647Z"  />
<glyph unicode="&#xF0;" horiz-adv-x="593" d="M352 660Q398 614 434 567T495 471T533 367T545 254Q545 209 533 162T493 76T416 13T296 -12Q242 -12 197 6T118 58T67 136T48 234Q48 287 66 332T118 410T196 461T296 480Q340 480 375 466T446 422L448 424Q428 461 410 489T372 542T333 587T289 628L179 571L143 607L251 663Q225 687 202 707T156 742L216 779Q242 758 266 738T313 696L415 749L455 714L352 660ZM120 234Q120 195 132 161T167 102T222 63T296 48Q337 48 369 62T425 102T460 161T473 234Q473 273 461 307T425 366T370 405T296 420Q255 420 223 406T168 366T133 307T120 234Z"  />
<glyph unicode="&#xF1;" horiz-adv-x="556" d="M135 468Q137 449 137 431T138 393H140Q151 412 168 428T206 455T250 473T297 480Q387 480 430 433T473 297V0H407V259Q407 337 380 378T280 420Q275 420 252 416T204 394T158 340T138 240V0H72V365Q72 384 71 413T67 468H135ZM116 576Q119 595 125 614T143 647T169 671T208 680Q226 680 244 673T281 657Q299 649 316 642T348 634Q371 634 381 649T397 684H440Q437 664 431 646T413 613T386 589T348 580Q330 580 312 587T275 603Q258 612 241 619T208 626Q185 626 175 611T159 576H116Z"  />
<glyph unicode="&#xF2;" horiz-adv-x="593" d="M473 234Q473 273 461 307T425 366T370 405T296 420Q255 420 223 406T168 366T133 307T120 234Q120 195 132 161T167 102T222 63T296 48Q337 48 369 62T425 102T460 161T473 234ZM545 234Q545 181 527 136T475 58T397 7T296 -12Q242 -12 197 6T118 58T67 136T48 234Q48 287 66 332T118 410T196 461T296 480Q351 480 396 462T475 410T526 332T545 234ZM167 708H258L358 564H299L167 708Z"  />
<glyph unicode="&#xF3;" horiz-adv-x="593" d="M473 234Q473 273 461 307T425 366T370 405T296 420Q255 420 223 406T168 366T133 307T120 234Q120 195 132 161T167 102T222 63T296 48Q337 48 369 62T425 102T460 161T473 234ZM545 234Q545 181 527 136T475 58T397 7T296 -12Q242 -12 197 6T118 58T67 136T48 234Q48 287 66 332T118 410T196 461T296 480Q351 480 396 462T475 410T526 332T545 234ZM295 564H236L336 708H427L295 564Z"  />
<glyph unicode="&#xF4;" horiz-adv-x="593" d="M473 234Q473 273 461 307T425 366T370 405T296 420Q255 420 223 406T168 366T133 307T120 234Q120 195 132 161T167 102T222 63T296 48Q337 48 369 62T425 102T460 161T473 234ZM545 234Q545 181 527 136T475 58T397 7T296 -12Q242 -12 197 6T118 58T67 136T48 234Q48 287 66 332T118 410T196 461T296 480Q351 480 396 462T475 410T526 332T545 234ZM446 564H380L297 672L214 564H148L257 708H337L446 564Z"  />
<glyph unicode="&#xF5;" horiz-adv-x="593" d="M473 234Q473 273 461 307T425 366T370 405T296 420Q255 420 223 406T168 366T133 307T120 234Q120 195 132 161T167 102T222 63T296 48Q337 48 369 62T425 102T460 161T473 234ZM545 234Q545 181 527 136T475 58T397 7T296 -12Q242 -12 197 6T118 58T67 136T48 234Q48 287 66 332T118 410T196 461T296 480Q351 480 396 462T475 410T526 332T545 234ZM135 576Q138 595 144 614T162 647T188 671T227 680Q245 680 263 673T300 657Q318 649 335 642T367 634Q390 634 400 649T416 684H459Q456 664 450 646T432 613T405 589T367 580Q349 580 331 587T294 603Q277 612 260 619T227 626Q204 626 194 611T178 576H135Z"  />
<glyph unicode="&#xF6;" horiz-adv-x="593" d="M473 234Q473 273 461 307T425 366T370 405T296 420Q255 420 223 406T168 366T133 307T120 234Q120 195 132 161T167 102T222 63T296 48Q337 48 369 62T425 102T460 161T473 234ZM545 234Q545 181 527 136T475 58T397 7T296 -12Q242 -12 197 6T118 58T67 136T48 234Q48 287 66 332T118 410T196 461T296 480Q351 480 396 462T475 410T526 332T545 234ZM342 647Q342 667 356 682T393 698Q416 698 430 683T444 647Q444 627 430 612T393 596Q370 596 356 611T342 647ZM150 647Q150 667 164 682T201 698Q224 698 238 683T252 647Q252 627 238 612T201 596Q178 596 164 611T150 647Z"  />
<glyph unicode="&#xF7;" horiz-adv-x="666" d="M387 141Q387 120 372 104T333 87Q309 87 294 103T279 141Q279 162 294 178T333 195Q357 195 372 179T387 141ZM387 465Q387 444 372 428T333 411Q309 411 294 427T279 465Q279 486 294 502T333 519Q357 519 372 503T387 465ZM588 273H78V333H588V273Z"  />
<glyph unicode="&#xF8;" horiz-adv-x="593" d="M487 397Q514 366 529 325T545 234Q545 181 527 136T475 58T397 7T296 -12Q248 -12 209 2T139 40L72 -28L40 3L106 71Q78 103 63 144T48 234Q48 287 66 332T118 410T196 461T296 480Q343 480 383 467T455 428L521 496L553 465L487 397ZM409 381Q364 420 296 420Q255 420 223 406T168 366T133 307T120 234Q120 166 154 120L409 381ZM184 86Q206 68 234 58T296 48Q337 48 369 62T425 102T460 161T473 234Q473 299 439 348L184 86Z"  />
<glyph unicode="&#xF9;" horiz-adv-x="556" d="M410 0Q408 19 408 37T407 75H405Q394 56 377 40T339 13T295 -5T248 -12Q158 -12 115 35T72 171V468H138V209Q138 170 144 140T164 90T203 59T265 48Q270 48 293 52T341 74T387 128T407 228V468H473V103Q473 84 474 55T478 0H410ZM148 708H239L339 564H280L148 708Z"  />
<glyph unicode="&#xFA;" horiz-adv-x="556" d="M410 0Q408 19 408 37T407 75H405Q394 56 377 40T339 13T295 -5T248 -12Q158 -12 115 35T72 171V468H138V209Q138 170 144 140T164 90T203 59T265 48Q270 48 293 52T341 74T387 128T407 228V468H473V103Q473 84 474 55T478 0H410ZM276 564H217L317 708H408L276 564Z"  />
<glyph unicode="&#xFB;" horiz-adv-x="556" d="M410 0Q408 19 408 37T407 75H405Q394 56 377 40T339 13T295 -5T248 -12Q158 -12 115 35T72 171V468H138V209Q138 170 144 140T164 90T203 59T265 48Q270 48 293 52T341 74T387 128T407 228V468H473V103Q473 84 474 55T478 0H410ZM427 564H361L278 672L195 564H129L238 708H318L427 564Z"  />
<glyph unicode="&#xFC;" horiz-adv-x="556" d="M410 0Q408 19 408 37T407 75H405Q394 56 377 40T339 13T295 -5T248 -12Q158 -12 115 35T72 171V468H138V209Q138 170 144 140T164 90T203 59T265 48Q270 48 293 52T341 74T387 128T407 228V468H473V103Q473 84 474 55T478 0H410ZM323 647Q323 667 337 682T374 698Q397 698 411 683T425 647Q425 627 411 612T374 596Q351 596 337 611T323 647ZM131 647Q131 667 145 682T182 698Q205 698 219 683T233 647Q233 627 219 612T182 596Q159 596 145 611T131 647Z"  />
<glyph unicode="&#xFD;" horiz-adv-x="482" d="M246 81L389 468H469L235 -122Q214 -176 182 -208T88 -240Q73 -240 58 -239T27 -233L34 -169Q55 -180 84 -180Q119 -180 139 -158T174 -96L208 -6L16 468H99L246 81ZM239 564H180L280 708H371L239 564Z"  />
<glyph unicode="&#xFE;" horiz-adv-x="611" d="M499 234Q499 273 487 307T451 366T396 405T322 420Q281 420 247 406T188 366T149 307T135 234Q135 195 148 161T185 102T244 63T322 48Q363 48 395 62T451 102T486 161T499 234ZM72 756H138V381H140Q162 411 186 430T233 461T279 476T322 480Q377 480 422 462T501 410T552 332T571 234Q571 181 553 136T501 58T423 7T322 -12Q299 -12 274 -7T224 9T178 37T140 78H138V-228H72V756Z"  />
<glyph unicode="&#xFF;" horiz-adv-x="482" d="M246 81L389 468H469L235 -122Q214 -176 182 -208T88 -240Q73 -240 58 -239T27 -233L34 -169Q55 -180 84 -180Q119 -180 139 -158T174 -96L208 -6L16 468H99L246 81ZM286 647Q286 667 300 682T337 698Q360 698 374 683T388 647Q388 627 374 612T337 596Q314 596 300 611T286 647ZM94 647Q94 667 108 682T145 698Q168 698 182 683T196 647Q196 627 182 612T145 596Q122 596 108 611T94 647Z"  />
<glyph unicode="&#x100;" horiz-adv-x="686" d="M189 252H496L343 624L189 252ZM84 0H0L308 708H378L686 0H602L524 186H162L84 0ZM478 791H208V845H478V791Z"  />
<glyph unicode="&#x101;" horiz-adv-x="519" d="M338 233Q313 233 276 231T204 219T145 189T120 134Q120 111 129 95T155 68T190 53T230 48Q266 48 292 60T337 92T363 140T372 199V233H338ZM372 287V299Q372 420 252 420Q170 420 109 365L69 412Q135 480 267 480Q301 480 332 470T387 440T424 388T438 314V105Q438 78 440 49T446 0H382Q379 17 378 37T376 76H374Q345 29 306 9T209 -12Q178 -12 149 -4T98 22T62 65T48 125Q48 182 77 214T151 263T246 283T339 287H372ZM381 600H111V654H381V600Z"  />
<glyph unicode="&#x102;" horiz-adv-x="686" d="M189 252H496L343 624L189 252ZM84 0H0L308 708H378L686 0H602L524 186H162L84 0ZM490 898Q486 835 446 801T343 766Q281 766 241 800T196 898H240Q247 859 276 840T343 820Q381 820 410 839T446 898H490Z"  />
<glyph unicode="&#x103;" horiz-adv-x="519" d="M338 233Q313 233 276 231T204 219T145 189T120 134Q120 111 129 95T155 68T190 53T230 48Q266 48 292 60T337 92T363 140T372 199V233H338ZM372 287V299Q372 420 252 420Q170 420 109 365L69 412Q135 480 267 480Q301 480 332 470T387 440T424 388T438 314V105Q438 78 440 49T446 0H382Q379 17 378 37T376 76H374Q345 29 306 9T209 -12Q178 -12 149 -4T98 22T62 65T48 125Q48 182 77 214T151 263T246 283T339 287H372ZM393 708Q389 645 349 611T246 576Q184 576 144 610T99 708H143Q150 669 179 650T246 630Q284 630 313 649T349 708H393Z"  />
<glyph unicode="&#x104;" horiz-adv-x="686" d="M700 -181Q683 -198 659 -207T610 -217Q592 -217 576 -211T548 -194T528 -167T520 -132Q520 -111 528 -92T549 -55T578 -21Q590 -9 602 0L524 186H162L84 0H0L308 708H378L686 0H651Q618 -33 600 -58Q580 -86 580 -115Q580 -136 595 -149T630 -163Q644 -163 657 -158T681 -141L700 -181ZM189 252H496L343 624L189 252Z"  />
<glyph unicode="&#x105;" horiz-adv-x="519" d="M482 -181Q465 -198 441 -207T392 -217Q374 -217 358 -211T330 -194T310 -167T302 -132Q302 -111 310 -92T331 -55T360 -21Q372 -10 383 0H382Q379 17 378 37T376 76H374Q345 29 306 9T209 -12Q178 -12 149 -4T98 22T62 65T48 125Q48 182 77 214T151 263T246 283T339 287H372V299Q372 420 252 420Q170 420 109 365L69 412Q135 480 267 480Q301 480 332 470T387 440T424 388T438 314V105Q438 78 440 49T446 0H433Q400 -33 382 -58Q362 -86 362 -115Q362 -136 377 -149T412 -163Q426 -163 439 -158T463 -141L482 -181ZM338 233Q313 233 276 231T204 219T145 189T120 134Q120 111 129 95T155 68T190 53T230 48Q266 48 292 60T337 92T363 140T372 199V233H338Z"  />
<glyph unicode="&#x106;" horiz-adv-x="704" d="M679 112Q661 85 635 61T574 20T501 -8T417 -18Q338 -18 271 10T154 87T76 205T48 354Q48 435 76 503T153 620T270 698T417 726Q483 726 549 700T662 614L599 567Q588 584 569 601T526 631T473 652T417 660Q349 660 295 635T204 568T146 471T126 354Q126 293 146 238T203 140T295 73T417 48Q445 48 472 53T526 70T576 102T620 154L679 112ZM431 760H372L472 904H563L431 760Z"  />
<glyph unicode="&#x107;" horiz-adv-x="482" d="M413 358Q396 384 366 402T296 420Q255 421 223 407T167 368T132 309T120 234Q120 194 132 160T167 100T222 61T296 48Q335 48 365 66T413 110L467 69Q432 28 388 9T296 -12Q239 -13 193 5T115 57T65 135T48 234Q48 287 65 332T114 411T193 462T296 480Q344 479 388 460T467 399L413 358ZM297 564H238L338 708H429L297 564Z"  />
<glyph unicode="&#x108;" horiz-adv-x="704" d="M679 112Q661 85 635 61T574 20T501 -8T417 -18Q338 -18 271 10T154 87T76 205T48 354Q48 435 76 503T153 620T270 698T417 726Q483 726 549 700T662 614L599 567Q588 584 569 601T526 631T473 652T417 660Q349 660 295 635T204 568T146 471T126 354Q126 293 146 238T203 140T295 73T417 48Q445 48 472 53T526 70T576 102T620 154L679 112ZM560 760H494L411 868L328 760H262L371 904H451L560 760Z"  />
<glyph unicode="&#x109;" horiz-adv-x="482" d="M413 358Q396 384 366 402T296 420Q255 421 223 407T167 368T132 309T120 234Q120 194 132 160T167 100T222 61T296 48Q335 48 365 66T413 110L467 69Q432 28 388 9T296 -12Q239 -13 193 5T115 57T65 135T48 234Q48 287 65 332T114 411T193 462T296 480Q344 479 388 460T467 399L413 358ZM440 564H374L291 672L208 564H142L251 708H331L440 564Z"  />
<glyph unicode="&#x10A;" horiz-adv-x="704" d="M679 112Q661 85 635 61T574 20T501 -8T417 -18Q338 -18 271 10T154 87T76 205T48 354Q48 435 76 503T153 620T270 698T417 726Q483 726 549 700T662 614L599 567Q588 584 569 601T526 631T473 652T417 660Q349 660 295 635T204 568T146 471T126 354Q126 293 146 238T203 140T295 73T417 48Q445 48 472 53T526 70T576 102T620 154L679 112ZM358 817Q358 837 372 852T409 868Q432 868 446 853T460 817Q460 797 446 782T409 766Q386 766 372 781T358 817Z"  />
<glyph unicode="&#x10B;" horiz-adv-x="482" d="M413 358Q396 384 366 402T296 420Q255 421 223 407T167 368T132 309T120 234Q120 194 132 160T167 100T222 61T296 48Q335 48 365 66T413 110L467 69Q432 28 388 9T296 -12Q239 -13 193 5T115 57T65 135T48 234Q48 287 65 332T114 411T193 462T296 480Q344 479 388 460T467 399L413 358ZM232 657Q232 677 246 692T283 708Q306 708 320 693T334 657Q334 637 320 622T283 606Q260 606 246 621T232 657Z"  />
<glyph unicode="&#x10C;" horiz-adv-x="704" d="M679 112Q661 85 635 61T574 20T501 -8T417 -18Q338 -18 271 10T154 87T76 205T48 354Q48 435 76 503T153 620T270 698T417 726Q483 726 549 700T662 614L599 567Q588 584 569 601T526 631T473 652T417 660Q349 660 295 635T204 568T146 471T126 354Q126 293 146 238T203 140T295 73T417 48Q445 48 472 53T526 70T576 102T620 154L679 112ZM441 760H361L252 904H318L401 796L484 904H550L441 760Z"  />
<glyph unicode="&#x10D;" horiz-adv-x="482" d="M413 358Q396 384 366 402T296 420Q255 421 223 407T167 368T132 309T120 234Q120 194 132 160T167 100T222 61T296 48Q335 48 365 66T413 110L467 69Q432 28 388 9T296 -12Q239 -13 193 5T115 57T65 135T48 234Q48 287 65 332T114 411T193 462T296 480Q344 479 388 460T467 399L413 358ZM327 564H247L138 708H204L287 600L370 708H436L327 564Z"  />
<glyph unicode="&#x10E;" horiz-adv-x="741" d="M158 66H298Q379 66 438 90T537 155T596 247T615 354Q615 409 596 460T538 552T439 617T298 642H158V66ZM86 708H321Q387 708 453 686T573 620T660 509T693 354Q693 265 660 199T574 89T454 22T321 0H86V708ZM384 760H304L195 904H261L344 796L427 904H493L384 760Z"  />
<glyph unicode="&#x10F;" horiz-adv-x="611" d="M112 234Q112 195 124 161T160 102T215 63T289 48Q329 48 363 62T423 102T462 161T476 234Q476 273 462 307T423 366T364 405T289 420Q248 420 216 406T160 366T125 307T112 234ZM539 0H473V78H471Q455 54 433 37T387 9T338 -7T289 -12Q234 -12 189 6T110 58T59 136T40 234Q40 287 58 332T110 410T188 461T289 480Q312 480 337 475T387 459T433 431T471 390H473V756H539V0ZM657 523H600L662 708H733L657 523Z"  />
<glyph unicode="&#x110;" horiz-adv-x="741" d="M158 66H298Q379 66 438 90T537 155T596 247T615 354Q615 409 596 460T538 552T439 617T298 642H158V401H416V347H158V66ZM86 347H13V401H86V708H321Q387 708 453 686T573 620T660 509T693 354Q693 265 660 199T574 89T454 22T321 0H86V347Z"  />
<glyph unicode="&#x111;" horiz-adv-x="611" d="M593 560H539V0H473V78H471Q455 54 433 37T387 9T338 -7T289 -12Q234 -12 189 6T110 58T59 136T40 234Q40 287 58 332T110 410T188 461T289 480Q312 480 337 475T387 459T433 431T471 390H473V560H274V612H473V756H539V612H593V560ZM112 234Q112 195 124 161T160 102T215 63T289 48Q329 48 363 62T423 102T462 161T476 234Q476 273 462 307T423 366T364 405T289 420Q248 420 216 406T160 366T125 307T112 234Z"  />
<glyph unicode="&#x112;" horiz-adv-x="593" d="M168 66H547V0H96V708H535V642H168V401H511V335H168V66ZM455 791H185V845H455V791Z"  />
<glyph unicode="&#x113;" horiz-adv-x="556" d="M436 270Q436 337 396 378T284 420Q252 420 222 408T170 374T134 326T120 270H436ZM118 216Q121 181 135 150T172 97T225 61T290 48Q343 48 381 72T440 129L491 87Q449 34 399 11T290 -12Q238 -12 194 6T117 58T67 136T48 234Q48 287 66 332T116 410T191 461T284 480Q337 480 379 461T449 411T493 337T508 246V216H118ZM416 600H146V654H416V600Z"  />
<glyph unicode="&#x114;" horiz-adv-x="593" d="M168 66H547V0H96V708H535V642H168V401H511V335H168V66ZM469 898Q465 835 425 801T322 766Q260 766 220 800T175 898H219Q226 859 255 840T322 820Q360 820 389 839T425 898H469Z"  />
<glyph unicode="&#x115;" horiz-adv-x="556" d="M436 270Q436 337 396 378T284 420Q252 420 222 408T170 374T134 326T120 270H436ZM118 216Q121 181 135 150T172 97T225 61T290 48Q343 48 381 72T440 129L491 87Q449 34 399 11T290 -12Q238 -12 194 6T117 58T67 136T48 234Q48 287 66 332T116 410T191 461T284 480Q337 480 379 461T449 411T493 337T508 246V216H118ZM434 708Q430 645 390 611T287 576Q225 576 185 610T140 708H184Q191 669 220 650T287 630Q325 630 354 649T390 708H434Z"  />
<glyph unicode="&#x116;" horiz-adv-x="593" d="M168 66H547V0H96V708H535V642H168V401H511V335H168V66ZM279 817Q279 837 293 852T330 868Q353 868 367 853T381 817Q381 797 367 782T330 766Q307 766 293 781T279 817Z"  />
<glyph unicode="&#x117;" horiz-adv-x="556" d="M436 270Q436 337 396 378T284 420Q252 420 222 408T170 374T134 326T120 270H436ZM118 216Q121 181 135 150T172 97T225 61T290 48Q343 48 381 72T440 129L491 87Q449 34 399 11T290 -12Q238 -12 194 6T117 58T67 136T48 234Q48 287 66 332T116 410T191 461T284 480Q337 480 379 461T449 411T493 337T508 246V216H118ZM238 657Q238 677 252 692T289 708Q312 708 326 693T340 657Q340 637 326 622T289 606Q266 606 252 621T238 657Z"  />
<glyph unicode="&#x118;" horiz-adv-x="593" d="M580 -181Q563 -198 539 -207T490 -217Q472 -217 456 -211T428 -194T408 -167T400 -132Q400 -111 408 -92T429 -55T458 -21Q470 -10 481 0H96V708H535V642H168V401H511V335H168V66H547V0H531Q498 -33 480 -58Q460 -86 460 -115Q460 -136 475 -149T510 -163Q524 -163 537 -158T561 -141L580 -181Z"  />
<glyph unicode="&#x119;" horiz-adv-x="556" d="M390 -181Q373 -198 349 -207T300 -217Q282 -217 266 -211T238 -194T218 -167T210 -132Q210 -111 218 -92T239 -55T268 -21Q273 -16 278 -12Q233 -10 193 6Q149 25 117 58T67 136T48 234Q48 287 66 332T116 410T191 461T284 480Q337 480 379 461T449 411T493 337T508 246V216H118Q121 181 135 150T172 97T225 61T290 48Q343 48 381 72T440 129L491 87Q449 34 398 11Q367 -3 332 -8Q306 -36 290 -58Q270 -86 270 -115Q270 -136 285 -149T320 -163Q334 -163 347 -158T371 -141L390 -181ZM436 270Q436 337 396 378T284 420Q252 420 222 408T170 374T134 326T120 270H436Z"  />
<glyph unicode="&#x11A;" horiz-adv-x="593" d="M168 66H547V0H96V708H535V642H168V401H511V335H168V66ZM363 760H283L174 904H240L323 796L406 904H472L363 760Z"  />
<glyph unicode="&#x11B;" horiz-adv-x="556" d="M436 270Q436 337 396 378T284 420Q252 420 222 408T170 374T134 326T120 270H436ZM118 216Q121 181 135 150T172 97T225 61T290 48Q343 48 381 72T440 129L491 87Q449 34 399 11T290 -12Q238 -12 194 6T117 58T67 136T48 234Q48 287 66 332T116 410T191 461T284 480Q337 480 379 461T449 411T493 337T508 246V216H118ZM331 564H251L142 708H208L291 600L374 708H440L331 564Z"  />
<glyph unicode="&#x11C;" horiz-adv-x="778" d="M619 578Q583 616 533 638T417 660Q349 660 295 635T204 568T146 471T126 354Q126 293 146 238T203 140T295 73T417 48Q472 48 522 61T613 98V335H444V401H685V54Q625 19 554 1T417 -18Q338 -18 271 10T154 87T76 205T48 354Q48 435 76 503T153 620T270 698T417 726Q502 726 563 703T673 631L619 578ZM558 760H492L409 868L326 760H260L369 904H449L558 760Z"  />
<glyph unicode="&#x11D;" horiz-adv-x="611" d="M120 240Q120 203 133 171T170 114T225 75T294 60Q330 60 362 73T420 109T458 166T471 240Q471 277 459 309T424 366T368 405T294 420Q257 420 226 406T171 367T134 310T120 240ZM108 -94Q137 -133 183 -156T287 -180Q337 -180 372 -166T428 -126T459 -68T469 4V88H467Q435 40 389 20T292 0Q241 0 197 18T119 67T67 143T48 238Q48 289 66 333T115 410T190 461T286 480Q307 480 330 476T377 462T424 435T467 390H469V468H535V4Q535 -34 526 -77T489 -156T412 -216T284 -240Q214 -240 159 -217T59 -146L108 -94ZM451 564H385L302 672L219 564H153L262 708H342L451 564Z"  />
<glyph unicode="&#x11E;" horiz-adv-x="778" d="M619 578Q583 616 533 638T417 660Q349 660 295 635T204 568T146 471T126 354Q126 293 146 238T203 140T295 73T417 48Q472 48 522 61T613 98V335H444V401H685V54Q625 19 554 1T417 -18Q338 -18 271 10T154 87T76 205T48 354Q48 435 76 503T153 620T270 698T417 726Q502 726 563 703T673 631L619 578ZM557 898Q553 835 513 801T410 766Q348 766 308 800T263 898H307Q314 859 343 840T410 820Q448 820 477 839T513 898H557Z"  />
<glyph unicode="&#x11F;" horiz-adv-x="611" d="M120 240Q120 203 133 171T170 114T225 75T294 60Q330 60 362 73T420 109T458 166T471 240Q471 277 459 309T424 366T368 405T294 420Q257 420 226 406T171 367T134 310T120 240ZM108 -94Q137 -133 183 -156T287 -180Q337 -180 372 -166T428 -126T459 -68T469 4V88H467Q435 40 389 20T292 0Q241 0 197 18T119 67T67 143T48 238Q48 289 66 333T115 410T190 461T286 480Q307 480 330 476T377 462T424 435T467 390H469V468H535V4Q535 -34 526 -77T489 -156T412 -216T284 -240Q214 -240 159 -217T59 -146L108 -94ZM453 708Q449 645 409 611T306 576Q244 576 204 610T159 708H203Q210 669 239 650T306 630Q344 630 373 649T409 708H453Z"  />
<glyph unicode="&#x120;" horiz-adv-x="778" d="M619 578Q583 616 533 638T417 660Q349 660 295 635T204 568T146 471T126 354Q126 293 146 238T203 140T295 73T417 48Q472 48 522 61T613 98V335H444V401H685V54Q625 19 554 1T417 -18Q338 -18 271 10T154 87T76 205T48 354Q48 435 76 503T153 620T270 698T417 726Q502 726 563 703T673 631L619 578ZM372 817Q372 837 386 852T423 868Q446 868 460 853T474 817Q474 797 460 782T423 766Q400 766 386 781T372 817Z"  />
<glyph unicode="&#x121;" horiz-adv-x="611" d="M120 240Q120 203 133 171T170 114T225 75T294 60Q330 60 362 73T420 109T458 166T471 240Q471 277 459 309T424 366T368 405T294 420Q257 420 226 406T171 367T134 310T120 240ZM108 -94Q137 -133 183 -156T287 -180Q337 -180 372 -166T428 -126T459 -68T469 4V88H467Q435 40 389 20T292 0Q241 0 197 18T119 67T67 143T48 238Q48 289 66 333T115 410T190 461T286 480Q307 480 330 476T377 462T424 435T467 390H469V468H535V4Q535 -34 526 -77T489 -156T412 -216T284 -240Q214 -240 159 -217T59 -146L108 -94ZM256 657Q256 677 270 692T307 708Q330 708 344 693T358 657Q358 637 344 622T307 606Q284 606 270 621T256 657Z"  />
<glyph unicode="&#x122;" horiz-adv-x="778" d="M619 578Q583 616 533 638T417 660Q349 660 295 635T204 568T146 471T126 354Q126 293 146 238T203 140T295 73T417 48Q472 48 522 61T613 98V335H444V401H685V54Q625 19 554 1T417 -18Q338 -18 271 10T154 87T76 205T48 354Q48 435 76 503T153 620T270 698T417 726Q502 726 563 703T673 631L619 578ZM392 -230H335L397 -45H468L392 -230Z"  />
<glyph unicode="&#x123;" horiz-adv-x="611" d="M120 240Q120 203 133 171T170 114T225 75T294 60Q330 60 362 73T420 109T458 166T471 240Q471 277 459 309T424 366T368 405T294 420Q257 420 226 406T171 367T134 310T120 240ZM108 -94Q137 -133 183 -156T287 -180Q337 -180 372 -166T428 -126T459 -68T469 4V88H467Q435 40 389 20T292 0Q241 0 197 18T119 67T67 143T48 238Q48 289 66 333T115 410T190 461T286 480Q307 480 330 476T377 462T424 435T467 390H469V468H535V4Q535 -34 526 -77T489 -156T412 -216T284 -240Q214 -240 159 -217T59 -146L108 -94ZM338 749H395L333 564H262L338 749Z"  />
<glyph unicode="&#x124;" horiz-adv-x="722" d="M96 708H168V401H554V708H626V0H554V335H168V0H96V708ZM511 760H445L362 868L279 760H213L322 904H402L511 760Z"  />
<glyph unicode="&#x125;" horiz-adv-x="556" d="M72 756H138V393H140Q151 412 168 428T206 455T250 473T297 480Q387 480 430 433T473 297V0H407V259Q407 337 380 378T280 420Q275 420 252 416T204 394T158 340T138 240V0H72V756ZM430 796H364L281 904L198 796H132L241 940H321L430 796Z"  />
<glyph unicode="&#x126;" horiz-adv-x="722" d="M96 708H168V543H554V708H626V0H554V335H168V0H96V708ZM554 401V483H168V401H554Z"  />
<glyph unicode="&#x127;" horiz-adv-x="556" d="M331 559H138V393H140Q151 412 168 428T206 455T250 473T297 480Q387 480 430 433T473 297V0H407V259Q407 337 380 378T280 420Q275 420 252 416T204 394T158 340T138 240V0H72V559H12V612H72V756H138V612H331V559Z"  />
<glyph unicode="&#x128;" horiz-adv-x="264" d="M168 0H96V708H168V0ZM-29 771Q-26 790 -20 809T-2 842T24 866T63 875Q81 875 99 868T136 852Q154 844 171 837T203 829Q226 829 236 844T252 879H295Q292 859 286 841T268 808T241 784T203 775Q185 775 167 782T130 798Q113 807 96 814T63 821Q40 821 30 806T14 771H-29Z"  />
<glyph unicode="&#x129;" horiz-adv-x="240" d="M153 0H87V468H153V0ZM-40 576Q-37 595 -31 614T-13 647T13 671T52 680Q70 680 88 673T125 657Q143 649 160 642T192 634Q215 634 225 649T241 684H284Q281 664 275 646T257 613T230 589T192 580Q174 580 156 587T119 603Q102 612 85 619T52 626Q29 626 19 611T3 576H-40Z"  />
<glyph unicode="&#x12A;" horiz-adv-x="264" d="M168 0H96V708H168V0ZM266 791H-4V845H266V791Z"  />
<glyph unicode="&#x12B;" horiz-adv-x="240" d="M153 0H87V468H153V0ZM256 600H-14V654H256V600Z"  />
<glyph unicode="&#x12E;" horiz-adv-x="264" d="M199 -181Q182 -198 158 -207T109 -217Q91 -217 75 -211T47 -194T27 -167T19 -132Q19 -111 27 -92T48 -55T77 -21Q89 -10 100 0H96V708H168V0H150Q117 -33 99 -58Q79 -86 79 -115Q79 -136 94 -149T129 -163Q143 -163 156 -158T180 -141L199 -181Z"  />
<glyph unicode="&#x12F;" horiz-adv-x="240" d="M188 -181Q171 -198 147 -207T98 -217Q80 -217 64 -211T36 -194T16 -167T8 -132Q8 -111 16 -92T37 -55T66 -21Q78 -10 89 0H87V468H153V0H139Q106 -33 88 -58Q68 -86 68 -115Q68 -136 83 -149T118 -163Q132 -163 145 -158T169 -141L188 -181ZM168 648Q168 627 153 614T120 600Q102 600 87 613T72 648Q72 669 87 682T120 696Q138 696 153 683T168 648Z"  />
<glyph unicode="&#x130;" horiz-adv-x="264" d="M168 0H96V708H168V0ZM82 817Q82 837 96 852T133 868Q156 868 170 853T184 817Q184 797 170 782T133 766Q110 766 96 781T82 817Z"  />
<glyph unicode="&#x131;" horiz-adv-x="240" d="M153 0H87V468H153V0Z"  />
<glyph unicode="&#x132;" horiz-adv-x="688" d="M168 0H96V708H168V0ZM293 145Q303 100 330 74T405 48Q444 48 468 63T506 103T525 159T530 224V708H602V194Q602 158 593 121T560 53T498 2T403 -18Q330 -18 281 19T220 130L293 145Z"  />
<glyph unicode="&#x133;" horiz-adv-x="475" d="M168 648Q168 627 153 614T120 600Q102 600 87 613T72 648Q72 669 87 682T120 696Q138 696 153 683T168 648ZM153 0H87V468H153V0ZM403 648Q403 627 388 614T355 600Q337 600 322 613T307 648Q307 669 322 682T355 696Q373 696 388 683T403 648ZM213 -173L216 -174Q224 -176 233 -178T251 -180Q275 -180 289 -171T311 -148T320 -116T322 -82V468H388V-93Q388 -103 387 -127T375 -177T336 -221T256 -240Q228 -240 204 -230L213 -173Z"  />
<glyph unicode="&#x134;" horiz-adv-x="482" d="M87 145Q97 100 124 74T199 48Q238 48 262 63T300 103T319 159T324 224V708H396V194Q396 158 387 121T354 53T292 2T197 -18Q124 -18 75 19T14 130L87 145ZM507 760H441L358 868L275 760H209L318 904H398L507 760Z"  />
<glyph unicode="&#x135;" horiz-adv-x="240" d="M-22 -173L-19 -174Q-11 -176 -2 -178T16 -180Q40 -180 54 -171T76 -148T85 -116T87 -82V468H153V-93Q153 -103 152 -127T140 -177T101 -221T21 -240Q-7 -240 -31 -230L-22 -173ZM267 564H201L118 672L35 564H-31L78 708H158L267 564Z"  />
<glyph unicode="&#x136;" horiz-adv-x="630" d="M168 401H169H178L511 708H614L257 387L634 0H528L180 365H169H168V0H96V708H168V401ZM288 -230H231L293 -45H364L288 -230Z"  />
<glyph unicode="&#x137;" horiz-adv-x="482" d="M138 257L359 468H458L225 254L483 0H381L138 246V0H72V756H138V257ZM198 -230H141L203 -45H274L198 -230Z"  />
<glyph unicode="&#x139;" horiz-adv-x="500" d="M168 66H498V0H96V708H168V66ZM168 760H109L209 904H300L168 760Z"  />
<glyph unicode="&#x13A;" horiz-adv-x="240" d="M153 0H87V756H153V0ZM146 792H87L187 936H278L146 792Z"  />
<glyph unicode="&#x13B;" horiz-adv-x="500" d="M168 66H498V0H96V708H168V66ZM267 -230H210L272 -45H343L267 -230Z"  />
<glyph unicode="&#x13C;" horiz-adv-x="240" d="M153 0H87V756H153V0ZM83 -230H26L88 -45H159L83 -230Z"  />
<glyph unicode="&#x13D;" horiz-adv-x="500" d="M168 66H498V0H96V708H168V66ZM312 523H255L317 708H388L312 523Z"  />
<glyph unicode="&#x13E;" horiz-adv-x="240" d="M153 0H87V756H153V0ZM259 523H202L264 708H335L259 523Z"  />
<glyph unicode="&#x13F;" horiz-adv-x="500" d="M168 66H498V0H96V708H168V66ZM322 406Q322 426 336 441T373 457Q396 457 410 442T424 406Q424 386 410 371T373 355Q350 355 336 370T322 406Z"  />
<glyph unicode="&#x140;" horiz-adv-x="300" d="M153 0H87V756H153V0ZM215 410Q215 430 229 445T266 461Q289 461 303 446T317 410Q317 390 303 375T266 359Q243 359 229 374T215 410Z"  />
<glyph unicode="&#x141;" horiz-adv-x="500" d="M168 362L384 548V478L168 292V66H498V0H96V230L14 160V230L96 300V708H168V362Z"  />
<glyph unicode="&#x142;" horiz-adv-x="240" d="M153 458L234 542V469L153 386V0H87V317L6 234V307L87 389V756H153V458Z"  />
<glyph unicode="&#x143;" horiz-adv-x="778" d="M608 108H610V708H682V0H592L170 606H168V0H96V708H186L608 108ZM400 760H341L441 904H532L400 760Z"  />
<glyph unicode="&#x144;" horiz-adv-x="556" d="M135 468Q137 449 137 431T138 393H140Q151 412 168 428T206 455T250 473T297 480Q387 480 430 433T473 297V0H407V259Q407 337 380 378T280 420Q275 420 252 416T204 394T158 340T138 240V0H72V365Q72 384 71 413T67 468H135ZM291 564H232L332 708H423L291 564Z"  />
<glyph unicode="&#x145;" horiz-adv-x="778" d="M608 108H610V708H682V0H592L170 606H168V0H96V708H186L608 108ZM358 -230H301L363 -45H434L358 -230Z"  />
<glyph unicode="&#x146;" horiz-adv-x="556" d="M135 468Q137 449 137 431T138 393H140Q151 412 168 428T206 455T250 473T297 480Q387 480 430 433T473 297V0H407V259Q407 337 380 378T280 420Q275 420 252 416T204 394T158 340T138 240V0H72V365Q72 384 71 413T67 468H135ZM246 -230H189L251 -45H322L246 -230Z"  />
<glyph unicode="&#x147;" horiz-adv-x="778" d="M608 108H610V708H682V0H592L170 606H168V0H96V708H186L608 108ZM431 760H351L242 904H308L391 796L474 904H540L431 760Z"  />
<glyph unicode="&#x148;" horiz-adv-x="556" d="M135 468Q137 449 137 431T138 393H140Q151 412 168 428T206 455T250 473T297 480Q387 480 430 433T473 297V0H407V259Q407 337 380 378T280 420Q275 420 252 416T204 394T158 340T138 240V0H72V365Q72 384 71 413T67 468H135ZM314 564H234L125 708H191L274 600L357 708H423L314 564Z"  />
<glyph unicode="&#x149;" horiz-adv-x="556" d="M135 468Q137 449 137 431T138 393H140Q151 412 168 428T206 455T250 473T297 480Q387 480 430 433T473 297V0H407V259Q407 337 380 378T280 420Q275 420 252 416T204 394T158 340T138 240V0H72V365Q72 384 71 413T67 468H135ZM75 523H18L80 708H151L75 523Z"  />
<glyph unicode="&#x14C;" horiz-adv-x="834" d="M708 354Q708 415 688 470T631 568T539 635T417 660Q349 660 295 635T204 568T146 471T126 354Q126 293 146 238T203 140T295 73T417 48Q485 48 539 73T630 140T688 237T708 354ZM786 354Q786 273 758 205T681 88T564 10T417 -18Q338 -18 271 10T154 87T76 205T48 354Q48 435 76 503T153 620T270 698T417 726Q496 726 563 698T680 621T758 503T786 354ZM553 791H283V845H553V791Z"  />
<glyph unicode="&#x14D;" horiz-adv-x="593" d="M473 234Q473 273 461 307T425 366T370 405T296 420Q255 420 223 406T168 366T133 307T120 234Q120 195 132 161T167 102T222 63T296 48Q337 48 369 62T425 102T460 161T473 234ZM545 234Q545 181 527 136T475 58T397 7T296 -12Q242 -12 197 6T118 58T67 136T48 234Q48 287 66 332T118 410T196 461T296 480Q351 480 396 462T475 410T526 332T545 234ZM432 600H162V654H432V600Z"  />
<glyph unicode="&#x14E;" horiz-adv-x="834" d="M708 354Q708 415 688 470T631 568T539 635T417 660Q349 660 295 635T204 568T146 471T126 354Q126 293 146 238T203 140T295 73T417 48Q485 48 539 73T630 140T688 237T708 354ZM786 354Q786 273 758 205T681 88T564 10T417 -18Q338 -18 271 10T154 87T76 205T48 354Q48 435 76 503T153 620T270 698T417 726Q496 726 563 698T680 621T758 503T786 354ZM563 898Q559 835 519 801T416 766Q354 766 314 800T269 898H313Q320 859 349 840T416 820Q454 820 483 839T519 898H563Z"  />
<glyph unicode="&#x14F;" horiz-adv-x="593" d="M473 234Q473 273 461 307T425 366T370 405T296 420Q255 420 223 406T168 366T133 307T120 234Q120 195 132 161T167 102T222 63T296 48Q337 48 369 62T425 102T460 161T473 234ZM545 234Q545 181 527 136T475 58T397 7T296 -12Q242 -12 197 6T118 58T67 136T48 234Q48 287 66 332T118 410T196 461T296 480Q351 480 396 462T475 410T526 332T545 234ZM444 708Q440 645 400 611T297 576Q235 576 195 610T150 708H194Q201 669 230 650T297 630Q335 630 364 649T400 708H444Z"  />
<glyph unicode="&#x150;" horiz-adv-x="834" d="M708 354Q708 415 688 470T631 568T539 635T417 660Q349 660 295 635T204 568T146 471T126 354Q126 293 146 238T203 140T295 73T417 48Q485 48 539 73T630 140T688 237T708 354ZM786 354Q786 273 758 205T681 88T564 10T417 -18Q338 -18 271 10T154 87T76 205T48 354Q48 435 76 503T153 620T270 698T417 726Q496 726 563 698T680 621T758 503T786 354ZM519 760H460L560 904H651L519 760ZM318 760H259L360 904H451L318 760Z"  />
<glyph unicode="&#x151;" horiz-adv-x="593" d="M473 234Q473 273 461 307T425 366T370 405T296 420Q255 420 223 406T168 366T133 307T120 234Q120 195 132 161T167 102T222 63T296 48Q337 48 369 62T425 102T460 161T473 234ZM545 234Q545 181 527 136T475 58T397 7T296 -12Q242 -12 197 6T118 58T67 136T48 234Q48 287 66 332T118 410T196 461T296 480Q351 480 396 462T475 410T526 332T545 234ZM402 564H343L443 708H534L402 564ZM201 564H142L243 708H334L201 564Z"  />
<glyph unicode="&#x152;" horiz-adv-x="944" d="M520 642H463Q394 642 335 624T233 569T166 478T141 352Q141 331 146 302T163 241T197 178T253 122T336 82T449 66H520V642ZM592 401H874V335H592V66H898V0H451Q344 0 271 34T151 120T84 235T63 355Q63 444 96 510T184 621T308 686T449 708H886V642H592V401Z"  />
<glyph unicode="&#x153;" horiz-adv-x="922" d="M808 270Q808 303 798 330T769 378T724 409T664 420Q634 420 609 409T564 377T534 330T523 270H808ZM451 234Q451 271 440 305T408 364T356 405T285 420Q249 420 219 406T166 366T132 307T120 234Q120 195 132 161T166 102T218 63T285 48Q325 48 356 63T408 103T440 162T451 234ZM523 216V207Q523 175 532 146T559 96T602 61T660 48Q690 48 712 54T752 70T782 95T806 124L858 83Q820 34 769 11T662 -12Q605 -12 557 14T480 94Q460 65 436 45T385 13T333 -6T285 -12Q231 -12 188 6T113 58T65 136T48 234Q48 287 66 332T116 410T191 461T285 480Q342 480 396 456T483 375Q516 426 557 453T662 480Q714 480 753 462T820 413T860 338T874 246V216H523Z"  />
<glyph unicode="&#x154;" horiz-adv-x="593" d="M168 395H296Q344 395 377 405T431 431T460 470T469 519Q469 544 460 566T431 606T378 632T296 642H168V395ZM168 0H96V708H314Q422 708 484 661T547 519Q547 445 501 395T366 336L570 0H482L288 329H168V0ZM302 760H243L343 904H434L302 760Z"  />
<glyph unicode="&#x155;" horiz-adv-x="332" d="M79 322Q79 353 78 385T75 468H140V381H142Q149 400 162 417T193 449T236 471T292 480Q320 480 341 474L328 409Q315 414 290 414Q252 414 225 400T180 363T154 314T145 264V0H79V322ZM196 564H137L237 708H328L196 564Z"  />
<glyph unicode="&#x156;" horiz-adv-x="593" d="M168 395H296Q344 395 377 405T431 431T460 470T469 519Q469 544 460 566T431 606T378 632T296 642H168V395ZM168 0H96V708H314Q422 708 484 661T547 519Q547 445 501 395T366 336L570 0H482L288 329H168V0ZM276 -230H219L281 -45H352L276 -230Z"  />
<glyph unicode="&#x157;" horiz-adv-x="332" d="M79 322Q79 353 78 385T75 468H140V381H142Q149 400 162 417T193 449T236 471T292 480Q320 480 341 474L328 409Q315 414 290 414Q252 414 225 400T180 363T154 314T145 264V0H79V322ZM77 -230H20L82 -45H153L77 -230Z"  />
<glyph unicode="&#x158;" horiz-adv-x="593" d="M168 395H296Q344 395 377 405T431 431T460 470T469 519Q469 544 460 566T431 606T378 632T296 642H168V395ZM168 0H96V708H314Q422 708 484 661T547 519Q547 445 501 395T366 336L570 0H482L288 329H168V0ZM334 760H254L145 904H211L294 796L377 904H443L334 760Z"  />
<glyph unicode="&#x159;" horiz-adv-x="332" d="M79 322Q79 353 78 385T75 468H140V381H142Q149 400 162 417T193 449T236 471T292 480Q320 480 341 474L328 409Q315 414 290 414Q252 414 225 400T180 363T154 314T145 264V0H79V322ZM219 564H139L30 708H96L179 600L262 708H328L219 564Z"  />
<glyph unicode="&#x15A;" horiz-adv-x="556" d="M431 591Q384 660 294 660Q266 660 239 653T191 630T156 590T143 532Q143 484 170 458T237 414T324 384T412 348T479 288T506 187Q506 139 486 101T432 36T357 -4T273 -18Q208 -18 150 6T50 87L115 134Q138 95 179 72T276 48Q303 48 330 56T378 81T414 122T428 177Q428 214 413 238T372 279T314 307T247 329T180 354T122 389T81 443T65 525Q65 576 84 614T136 677T210 714T294 726Q354 726 403 707T494 640L431 591ZM310 760H251L351 904H442L310 760Z"  />
<glyph unicode="&#x15B;" horiz-adv-x="426" d="M320 357Q305 386 280 403T219 420Q202 420 185 416T153 404T131 382T122 350Q122 317 145 302T214 276L281 260Q330 249 362 216T395 132Q395 94 380 67T339 22T280 -4T213 -12Q159 -12 113 8T33 79L90 118Q110 86 140 67T213 48Q233 48 253 52T288 66T313 91T323 126Q323 161 297 176T234 201L170 216Q158 219 138 226T98 247T64 283T50 339Q50 375 64 402T103 446T159 471T223 480Q272 480 314 461T379 396L320 357ZM237 564H178L278 708H369L237 564Z"  />
<glyph unicode="&#x15C;" horiz-adv-x="556" d="M431 591Q384 660 294 660Q266 660 239 653T191 630T156 590T143 532Q143 484 170 458T237 414T324 384T412 348T479 288T506 187Q506 139 486 101T432 36T357 -4T273 -18Q208 -18 150 6T50 87L115 134Q138 95 179 72T276 48Q303 48 330 56T378 81T414 122T428 177Q428 214 413 238T372 279T314 307T247 329T180 354T122 389T81 443T65 525Q65 576 84 614T136 677T210 714T294 726Q354 726 403 707T494 640L431 591ZM448 760H382L299 868L216 760H150L259 904H339L448 760Z"  />
<glyph unicode="&#x15D;" horiz-adv-x="426" d="M320 357Q305 386 280 403T219 420Q202 420 185 416T153 404T131 382T122 350Q122 317 145 302T214 276L281 260Q330 249 362 216T395 132Q395 94 380 67T339 22T280 -4T213 -12Q159 -12 113 8T33 79L90 118Q110 86 140 67T213 48Q233 48 253 52T288 66T313 91T323 126Q323 161 297 176T234 201L170 216Q158 219 138 226T98 247T64 283T50 339Q50 375 64 402T103 446T159 471T223 480Q272 480 314 461T379 396L320 357ZM364 564H298L215 672L132 564H66L175 708H255L364 564Z"  />
<glyph unicode="&#x15E;" horiz-adv-x="556" d="M267 -60L269 -61Q277 -58 285 -56T305 -54Q335 -54 358 -73T382 -129Q382 -152 372 -169T345 -196T308 -212T267 -217Q215 -217 170 -193L186 -157Q220 -175 260 -175Q282 -175 302 -165T322 -130Q322 -126 320 -119T313 -106T298 -95T273 -90Q259 -90 248 -93T227 -101L209 -84L258 -17Q201 -15 149 6Q91 31 50 87L115 134Q138 95 179 72T276 48Q303 48 330 56T378 81T414 122T428 177Q428 214 413 238T372 279T314 307T247 329T180 354T122 389T81 443T65 525Q65 576 84 614T136 677T210 714T294 726Q354 726 403 707T494 640L431 591Q384 660 294 660Q266 660 239 653T191 630T156 590T143 532Q143 484 170 458T237 414T324 384T412 348T479 288T506 187Q506 139 486 101T432 36T356 -4Q328 -13 299 -16L267 -60Z"  />
<glyph unicode="&#x15F;" horiz-adv-x="426" d="M206 -60L208 -61Q216 -58 224 -56T244 -54Q274 -54 297 -73T321 -129Q321 -152 311 -169T284 -196T247 -212T206 -217Q154 -217 109 -193L125 -157Q159 -175 199 -175Q221 -175 241 -165T261 -130Q261 -126 259 -119T252 -106T237 -95T212 -90Q198 -90 187 -93T166 -101L148 -84L201 -12Q153 -9 112 8Q66 29 33 79L90 118Q110 86 140 67T213 48Q233 48 253 52T288 66T313 91T323 126Q323 161 297 176T234 201L170 216Q158 219 138 226T98 247T64 283T50 339Q50 375 64 402T103 446T159 471T223 480Q272 480 314 461T379 396L320 357Q305 386 280 403T219 420Q202 420 185 416T153 404T131 382T122 350Q122 317 145 302T214 276L281 260Q330 249 362 216T395 132Q395 94 380 67T339 22T280 -4Q261 -8 243 -10L206 -60Z"  />
<glyph unicode="&#x160;" horiz-adv-x="556" d="M431 591Q384 660 294 660Q266 660 239 653T191 630T156 590T143 532Q143 484 170 458T237 414T324 384T412 348T479 288T506 187Q506 139 486 101T432 36T357 -4T273 -18Q208 -18 150 6T50 87L115 134Q138 95 179 72T276 48Q303 48 330 56T378 81T414 122T428 177Q428 214 413 238T372 279T314 307T247 329T180 354T122 389T81 443T65 525Q65 576 84 614T136 677T210 714T294 726Q354 726 403 707T494 640L431 591ZM318 739H238L129 883H195L278 775L361 883H427L318 739Z"  />
<glyph unicode="&#x161;" horiz-adv-x="426" d="M320 357Q305 386 280 403T219 420Q202 420 185 416T153 404T131 382T122 350Q122 317 145 302T214 276L281 260Q330 249 362 216T395 132Q395 94 380 67T339 22T280 -4T213 -12Q159 -12 113 8T33 79L90 118Q110 86 140 67T213 48Q233 48 253 52T288 66T313 91T323 126Q323 161 297 176T234 201L170 216Q158 219 138 226T98 247T64 283T50 339Q50 375 64 402T103 446T159 471T223 480Q272 480 314 461T379 396L320 357ZM253 564H173L64 708H130L213 600L296 708H362L253 564Z"  />
<glyph unicode="&#x162;" horiz-adv-x="574" d="M323 0H251V642H14V708H560V642H323V0ZM256 -230H199L261 -45H332L256 -230Z"  />
<glyph unicode="&#x163;" horiz-adv-x="332" d="M314 408H179V132Q179 106 184 90T198 64T219 52T247 48Q264 48 282 53T315 66L318 5Q281 -12 229 -12Q210 -12 190 -7T152 12T124 50T113 113V408H14V468H113V600H179V468H314V408ZM161 -230H104L166 -45H237L161 -230Z"  />
<glyph unicode="&#x164;" horiz-adv-x="574" d="M323 0H251V642H14V708H560V642H323V0ZM327 760H247L138 904H204L287 796L370 904H436L327 760Z"  />
<glyph unicode="&#x165;" horiz-adv-x="332" d="M314 408H179V132Q179 106 184 90T198 64T219 52T247 48Q264 48 282 53T315 66L318 5Q281 -12 229 -12Q210 -12 190 -7T152 12T124 50T113 113V408H14V468H113V600H179V468H314V408ZM297 523H240L302 708H373L297 523Z"  />
<glyph unicode="&#x166;" horiz-adv-x="574" d="M542 403H323V0H251V403H32V463H251V642H14V708H560V642H323V463H542V403Z"  />
<glyph unicode="&#x167;" horiz-adv-x="332" d="M314 408H179V306H294V253H179V132Q179 106 184 90T198 64T219 52T247 48Q264 48 282 53T315 66L318 5Q281 -12 229 -12Q210 -12 190 -7T152 12T124 50T113 113V253H35V306H113V408H14V468H113V600H179V468H314V408Z"  />
<glyph unicode="&#x168;" horiz-adv-x="686" d="M602 264Q602 220 592 171T552 79T473 10T343 -18Q263 -18 213 9T134 79T95 170T84 264V708H156V272Q156 221 166 185T192 123T229 84T270 61T310 51T343 48Q356 48 375 50T415 61T456 83T493 123T520 184T530 272V708H602V264ZM190 771Q193 790 199 809T217 842T243 866T282 875Q300 875 318 868T355 852Q373 844 390 837T422 829Q445 829 455 844T471 879H514Q511 859 505 841T487 808T460 784T422 775Q404 775 386 782T349 798Q332 807 315 814T282 821Q259 821 249 806T233 771H190Z"  />
<glyph unicode="&#x169;" horiz-adv-x="556" d="M410 0Q408 19 408 37T407 75H405Q394 56 377 40T339 13T295 -5T248 -12Q158 -12 115 35T72 171V468H138V209Q138 170 144 140T164 90T203 59T265 48Q270 48 293 52T341 74T387 128T407 228V468H473V103Q473 84 474 55T478 0H410ZM116 576Q119 595 125 614T143 647T169 671T208 680Q226 680 244 673T281 657Q299 649 316 642T348 634Q371 634 381 649T397 684H440Q437 664 431 646T413 613T386 589T348 580Q330 580 312 587T275 603Q258 612 241 619T208 626Q185 626 175 611T159 576H116Z"  />
<glyph unicode="&#x16A;" horiz-adv-x="686" d="M602 264Q602 220 592 171T552 79T473 10T343 -18Q263 -18 213 9T134 79T95 170T84 264V708H156V272Q156 221 166 185T192 123T229 84T270 61T310 51T343 48Q356 48 375 50T415 61T456 83T493 123T520 184T530 272V708H602V264ZM480 791H210V845H480V791Z"  />
<glyph unicode="&#x16B;" horiz-adv-x="556" d="M410 0Q408 19 408 37T407 75H405Q394 56 377 40T339 13T295 -5T248 -12Q158 -12 115 35T72 171V468H138V209Q138 170 144 140T164 90T203 59T265 48Q270 48 293 52T341 74T387 128T407 228V468H473V103Q473 84 474 55T478 0H410ZM409 600H139V654H409V600Z"  />
<glyph unicode="&#x16C;" horiz-adv-x="686" d="M602 264Q602 220 592 171T552 79T473 10T343 -18Q263 -18 213 9T134 79T95 170T84 264V708H156V272Q156 221 166 185T192 123T229 84T270 61T310 51T343 48Q356 48 375 50T415 61T456 83T493 123T520 184T530 272V708H602V264ZM492 898Q488 835 448 801T345 766Q283 766 243 800T198 898H242Q249 859 278 840T345 820Q383 820 412 839T448 898H492Z"  />
<glyph unicode="&#x16D;" horiz-adv-x="556" d="M410 0Q408 19 408 37T407 75H405Q394 56 377 40T339 13T295 -5T248 -12Q158 -12 115 35T72 171V468H138V209Q138 170 144 140T164 90T203 59T265 48Q270 48 293 52T341 74T387 128T407 228V468H473V103Q473 84 474 55T478 0H410ZM423 708Q419 645 379 611T276 576Q214 576 174 610T129 708H173Q180 669 209 650T276 630Q314 630 343 649T379 708H423Z"  />
<glyph unicode="&#x16E;" horiz-adv-x="686" d="M602 264Q602 220 592 171T552 79T473 10T343 -18Q263 -18 213 9T134 79T95 170T84 264V708H156V272Q156 221 166 185T192 123T229 84T270 61T310 51T343 48Q356 48 375 50T415 61T456 83T493 123T520 184T530 272V708H602V264ZM407 835Q407 860 390 877T347 894Q322 894 305 877T287 835Q287 810 304 793T347 776Q372 776 389 793T407 835ZM443 835Q443 815 436 798T415 767T384 747T347 740Q327 740 310 747T280 767T259 797T251 835Q251 855 258 872T279 902T310 922T347 930Q366 930 383 923T414 903T435 873T443 835Z"  />
<glyph unicode="&#x16F;" horiz-adv-x="556" d="M410 0Q408 19 408 37T407 75H405Q394 56 377 40T339 13T295 -5T248 -12Q158 -12 115 35T72 171V468H138V209Q138 170 144 140T164 90T203 59T265 48Q270 48 293 52T341 74T387 128T407 228V468H473V103Q473 84 474 55T478 0H410ZM333 650Q333 675 316 692T273 709Q248 709 231 692T213 650Q213 625 230 608T273 591Q298 591 315 608T333 650ZM369 650Q369 630 362 613T341 582T310 562T273 555Q253 555 236 562T206 582T185 612T177 650Q177 670 184 687T205 717T236 737T273 745Q292 745 309 738T340 718T361 688T369 650Z"  />
<glyph unicode="&#x170;" horiz-adv-x="686" d="M602 264Q602 220 592 171T552 79T473 10T343 -18Q263 -18 213 9T134 79T95 170T84 264V708H156V272Q156 221 166 185T192 123T229 84T270 61T310 51T343 48Q356 48 375 50T415 61T456 83T493 123T520 184T530 272V708H602V264ZM453 760H394L494 904H585L453 760ZM252 760H193L294 904H385L252 760Z"  />
<glyph unicode="&#x171;" horiz-adv-x="556" d="M410 0Q408 19 408 37T407 75H405Q394 56 377 40T339 13T295 -5T248 -12Q158 -12 115 35T72 171V468H138V209Q138 170 144 140T164 90T203 59T265 48Q270 48 293 52T341 74T387 128T407 228V468H473V103Q473 84 474 55T478 0H410ZM398 564H339L439 708H530L398 564ZM197 564H138L239 708H330L197 564Z"  />
<glyph unicode="&#x172;" horiz-adv-x="686" d="M445 -181Q428 -198 404 -207T355 -217Q337 -217 321 -211T293 -194T273 -167T265 -132Q265 -111 273 -92T294 -55T323 -21L326 -18Q258 -15 213 9Q163 37 134 79T95 170T84 264V708H156V272Q156 221 166 185T192 123T229 84T270 61T310 51T343 48Q356 48 375 50T415 61T456 83T493 123T520 184T530 272V708H602V264Q602 220 592 171T552 79T472 9Q434 -11 380 -16Q358 -40 345 -58Q325 -86 325 -115Q325 -136 340 -149T375 -163Q389 -163 402 -158T426 -141L445 -181Z"  />
<glyph unicode="&#x173;" horiz-adv-x="556" d="M511 -181Q494 -198 470 -207T421 -217Q403 -217 387 -211T359 -194T339 -167T331 -132Q331 -111 339 -92T360 -55T389 -21Q401 -10 412 0H410Q408 19 408 37T407 75H405Q394 56 377 40T339 13T295 -5T248 -12Q158 -12 115 35T72 171V468H138V209Q138 170 144 140T164 90T203 59T265 48Q270 48 293 52T341 74T387 128T407 228V468H473V103Q473 84 474 55T478 0H462Q429 -33 411 -58Q391 -86 391 -115Q391 -136 406 -149T441 -163Q455 -163 468 -158T492 -141L511 -181Z"  />
<glyph unicode="&#x174;" horiz-adv-x="944" d="M250 102H252L430 708H516L694 102H696L864 708H944L735 0H651L473 606H471L293 0H209L0 708H80L250 102ZM622 760H556L473 868L390 760H324L433 904H513L622 760Z"  />
<glyph unicode="&#x175;" horiz-adv-x="722" d="M92 468L200 88H202L327 468H395L520 88H522L630 468H708L560 0H486L362 384H360L236 0H162L14 468H92ZM510 564H444L361 672L278 564H212L321 708H401L510 564Z"  />
<glyph unicode="&#x176;" horiz-adv-x="574" d="M323 0H251V305L-14 708H76L287 374L498 708H588L323 305V0ZM436 760H370L287 868L204 760H138L247 904H327L436 760Z"  />
<glyph unicode="&#x177;" horiz-adv-x="482" d="M246 81L389 468H469L235 -122Q214 -176 182 -208T88 -240Q73 -240 58 -239T27 -233L34 -169Q55 -180 84 -180Q119 -180 139 -158T174 -96L208 -6L16 468H99L246 81ZM388 564H322L239 672L156 564H90L199 708H279L388 564Z"  />
<glyph unicode="&#x178;" horiz-adv-x="574" d="M323 0H251V305L-14 708H76L287 374L498 708H588L323 305V0ZM332 822Q332 842 346 857T383 873Q406 873 420 858T434 822Q434 802 420 787T383 771Q360 771 346 786T332 822ZM140 822Q140 842 154 857T191 873Q214 873 228 858T242 822Q242 802 228 787T191 771Q168 771 154 786T140 822Z"  />
<glyph unicode="&#x179;" horiz-adv-x="556" d="M527 648L114 66H533V0H23V60L437 642H29V708H527V648ZM274 760H215L315 904H406L274 760Z"  />
<glyph unicode="&#x17A;" horiz-adv-x="426" d="M393 420L119 60H403V0H23V48L297 408H37V468H393V420ZM216 564H157L257 708H348L216 564Z"  />
<glyph unicode="&#x17B;" horiz-adv-x="556" d="M527 648L114 66H533V0H23V60L437 642H29V708H527V648ZM217 817Q217 837 231 852T268 868Q291 868 305 853T319 817Q319 797 305 782T268 766Q245 766 231 781T217 817Z"  />
<glyph unicode="&#x17C;" horiz-adv-x="426" d="M393 420L119 60H403V0H23V48L297 408H37V468H393V420ZM162 657Q162 677 176 692T213 708Q236 708 250 693T264 657Q264 637 250 622T213 606Q190 606 176 621T162 657Z"  />
<glyph unicode="&#x17D;" horiz-adv-x="556" d="M527 648L114 66H533V0H23V60L437 642H29V708H527V648ZM318 739H238L129 883H195L278 775L361 883H427L318 739Z"  />
<glyph unicode="&#x17E;" horiz-adv-x="426" d="M393 420L119 60H403V0H23V48L297 408H37V468H393V420ZM253 564H173L64 708H130L213 600L296 708H362L253 564Z"  />
<glyph unicode="&#x192;" horiz-adv-x="556" d="M423 365H304L237 13Q232 -14 222 -41T195 -90T150 -125T82 -139Q60 -139 39 -134T0 -115L32 -67Q43 -73 57 -76T84 -79Q107 -79 122 -70T146 -45T161 -11T170 27L233 365H125V419H244L271 563Q277 594 287 622T315 672T359 707T423 720Q475 720 518 691L484 643Q471 651 457 655T427 660Q402 660 386 648T360 618T345 580T337 544L315 419H423V365Z"  />
<glyph unicode="&#x218;" horiz-adv-x="556" d="M431 591Q384 660 294 660Q266 660 239 653T191 630T156 590T143 532Q143 484 170 458T237 414T324 384T412 348T479 288T506 187Q506 139 486 101T432 36T357 -4T273 -18Q208 -18 150 6T50 87L115 134Q138 95 179 72T276 48Q303 48 330 56T378 81T414 122T428 177Q428 214 413 238T372 279T314 307T247 329T180 354T122 389T81 443T65 525Q65 576 84 614T136 677T210 714T294 726Q354 726 403 707T494 640L431 591ZM255 -230H198L260 -45H331L255 -230Z"  />
<glyph unicode="&#x219;" horiz-adv-x="426" d="M320 357Q305 386 280 403T219 420Q202 420 185 416T153 404T131 382T122 350Q122 317 145 302T214 276L281 260Q330 249 362 216T395 132Q395 94 380 67T339 22T280 -4T213 -12Q159 -12 113 8T33 79L90 118Q110 86 140 67T213 48Q233 48 253 52T288 66T313 91T323 126Q323 161 297 176T234 201L170 216Q158 219 138 226T98 247T64 283T50 339Q50 375 64 402T103 446T159 471T223 480Q272 480 314 461T379 396L320 357ZM189 -230H132L194 -45H265L189 -230Z"  />
<glyph unicode="&#x21A;" horiz-adv-x="574" d="M323 0H251V642H14V708H560V642H323V0ZM256 -230H199L261 -45H332L256 -230Z"  />
<glyph unicode="&#x21B;" horiz-adv-x="332" d="M314 408H179V132Q179 106 184 90T198 64T219 52T247 48Q264 48 282 53T315 66L318 5Q281 -12 229 -12Q210 -12 190 -7T152 12T124 50T113 113V408H14V468H113V600H179V468H314V408ZM161 -230H104L166 -45H237L161 -230Z"  />
<glyph unicode="&#x2C6;" horiz-adv-x="240" d="M269 564H203L120 672L37 564H-29L80 708H160L269 564Z"  />
<glyph unicode="&#x2C7;" horiz-adv-x="240" d="M160 564H80L-29 708H37L120 600L203 708H269L160 564Z"  />
<glyph unicode="&#x2C9;" horiz-adv-x="240" d="M255 600H-15V654H255V600Z"  />
<glyph unicode="&#x2D8;" horiz-adv-x="240" d="M267 708Q263 645 223 611T120 576Q58 576 18 610T-27 708H17Q24 669 53 650T120 630Q158 630 187 649T223 708H267Z"  />
<glyph unicode="&#x2D9;" horiz-adv-x="240" d="M69 657Q69 677 83 692T120 708Q143 708 157 693T171 657Q171 637 157 622T120 606Q97 606 83 621T69 657Z"  />
<glyph unicode="&#x2DA;" horiz-adv-x="240" d="M180 650Q180 675 163 692T120 709Q95 709 78 692T60 650Q60 625 77 608T120 591Q145 591 162 608T180 650ZM216 650Q216 630 209 613T188 582T157 562T120 555Q100 555 83 562T53 582T32 612T24 650Q24 670 31 687T52 717T83 737T120 745Q139 745 156 738T187 718T208 688T216 650Z"  />
<glyph unicode="&#x2DB;" horiz-adv-x="240" d="M210 -181Q193 -198 169 -207T120 -217Q102 -217 86 -211T58 -194T38 -167T30 -132Q30 -111 38 -92T59 -55T88 -22T119 6H167Q130 -31 110 -58T90 -115Q90 -136 105 -149T140 -163Q154 -163 167 -158T191 -141L210 -181Z"  />
<glyph unicode="&#x2DC;" horiz-adv-x="240" d="M-42 576Q-39 595 -33 614T-15 647T11 671T50 680Q68 680 86 673T123 657Q141 649 158 642T190 634Q213 634 223 649T239 684H282Q279 664 273 646T255 613T228 589T190 580Q172 580 154 587T117 603Q100 612 83 619T50 626Q27 626 17 611T1 576H-42Z"  />
<glyph unicode="&#x2DD;" horiz-adv-x="240" d="M184 564H125L225 708H316L184 564ZM-17 564H-76L25 708H116L-17 564Z"  />
<glyph unicode="&#x394;" horiz-adv-x="670" d="M15 0L296 712H370L657 0H15ZM332 645L106 62H561L332 645Z"  />
<glyph unicode="&#x3A9;" horiz-adv-x="744" d="M434 0V181Q479 189 513 209T571 261T606 331T618 415Q618 469 599 514T545 591T465 642T366 660Q313 660 267 642T187 591T134 513T114 415Q114 371 125 332T160 261T218 209T298 181V0H47V58H244V140Q197 153 161 180T99 243T60 324T47 416Q47 483 72 539T142 635T244 698T367 721Q432 721 489 699T590 636T659 539T685 417Q685 369 672 325T634 244T573 180T488 140V58H685V0H434Z"  />
<glyph unicode="&#x3BC;" horiz-adv-x="556" d="M72 468H138V209Q138 123 165 86T265 48Q295 48 321 60T366 95T396 151T407 228V468H473V103Q473 77 474 52T478 0H407V76H405Q394 58 377 42T339 14T295 -5T248 -12Q179 -12 138 17V-228H72V468Z"  />
<glyph unicode="&#x3C0;" horiz-adv-x="563" d="M530 11Q513 3 499 -1T466 -6Q437 -6 421 3T397 29T388 67T386 111V409H166V0H102V409H32V468H526V409H450V104Q450 82 455 66T488 50Q508 50 530 60V11H530Z"  />
<glyph unicode="&#x2013;" horiz-adv-x="500" d="M500 207H0V273H500V207Z"  />
<glyph unicode="&#x2014;" horiz-adv-x="1000" d="M1000 207H0V273H1000V207Z"  />
<glyph unicode="&#x2018;" horiz-adv-x="260" d="M137 708H204L137 473H56L137 708Z"  />
<glyph unicode="&#x2019;" horiz-adv-x="260" d="M123 473H56L123 708H204L123 473Z"  />
<glyph unicode="&#x201A;" horiz-adv-x="260" d="M123 -140H56L123 95H204L123 -140Z"  />
<glyph unicode="&#x201C;" horiz-adv-x="519" d="M357 708H424L357 473H276L357 708ZM176 708H243L176 473H95L176 708Z"  />
<glyph unicode="&#x201D;" horiz-adv-x="519" d="M162 473H95L162 708H243L162 473ZM343 473H276L343 708H424L343 473Z"  />
<glyph unicode="&#x201E;" horiz-adv-x="519" d="M162 -140H95L162 95H243L162 -140ZM343 -140H276L343 95H424L343 -140Z"  />
<glyph unicode="&#x2020;" horiz-adv-x="556" d="M311 504H515V444H311V-126H245V444H41V504H245V708H311V504Z"  />
<glyph unicode="&#x2021;" horiz-adv-x="556" d="M311 516H506V456H311V126H506V66H311V-126H245V66H50V126H245V456H50V516H245V708H311V516Z"  />
<glyph unicode="&#x2022;" horiz-adv-x="500" d="M73 354Q73 391 87 423T125 479T181 517T250 531Q287 531 319 517T375 479T413 423T427 354Q427 317 413 285T375 229T319 191T250 177Q213 177 181 191T125 229T87 285T73 354Z"  />
<glyph unicode="&#x2026;" horiz-adv-x="1000" d="M887 48Q887 27 872 11T833 -6Q809 -6 794 10T779 48Q779 69 794 85T833 102Q857 102 872 86T887 48ZM554 48Q554 27 539 11T500 -6Q476 -6 461 10T446 48Q446 69 461 85T500 102Q524 102 539 86T554 48ZM221 48Q221 27 206 11T167 -6Q143 -6 128 10T113 48Q113 69 128 85T167 102Q191 102 206 86T221 48Z"  />
<glyph unicode="&#x2030;" horiz-adv-x="1000" d="M125 -31L73 -4L524 739L575 712L125 -31ZM921 142Q921 184 893 213T822 242Q780 242 752 213T723 142Q723 100 751 71T822 42Q864 42 892 71T921 142ZM975 142Q975 110 963 82T931 33T882 0T822 -12Q790 -12 762 0T714 33T681 82T669 142Q669 173 681 201T713 250T762 283T822 296Q854 296 882 284T930 250T963 201T975 142ZM571 142Q571 184 543 213T472 242Q430 242 402 213T373 142Q373 100 401 71T472 42Q514 42 542 71T571 142ZM625 142Q625 110 613 82T581 33T532 0T472 -12Q440 -12 412 0T364 33T331 82T319 142Q319 173 331 201T363 250T412 283T472 296Q504 296 532 284T580 250T613 201T625 142ZM277 566Q277 608 249 637T178 666Q136 666 108 637T79 566Q79 524 107 495T178 466Q220 466 248 495T277 566ZM331 566Q331 534 319 506T287 457T238 424T178 412Q146 412 118 424T70 457T37 506T25 566Q25 597 37 625T69 674T118 707T178 720Q210 720 238 708T286 674T319 625T331 566Z"  />
<glyph unicode="&#x2039;" horiz-adv-x="315" d="M246 64L199 31L59 240L199 449L246 416L131 240L246 64Z"  />
<glyph unicode="&#x203A;" horiz-adv-x="315" d="M69 416L116 449L256 240L116 31L69 64L184 240L69 416Z"  />
<glyph unicode="&#x2044;" horiz-adv-x="168" d="M-167 0L284 740L335 709L-115 -32L-167 0Z"  />
<glyph unicode="&#x20AC;" horiz-adv-x="556" d="M497 618Q474 635 440 646T363 657Q213 657 177 475H460L443 419H168Q165 383 165 343Q165 329 165 316T167 288H407L389 233H173Q188 146 229 97T343 48Q383 48 417 66T468 112L515 78Q487 32 438 10T334 -12Q280 -12 240 6T171 56T124 134T98 233H23L43 288H92Q91 302 91 316T90 346Q90 384 93 419H24L44 475H101Q126 601 196 660T364 720Q406 720 449 708T518 680L497 618Z"  />
<glyph unicode="&#x2113;" horiz-adv-x="500" d="M415 41Q356 -14 285 -14Q230 -14 194 17T158 114V228L100 166H98L72 203L158 287V546Q158 588 168 620T195 675T236 709T287 721Q335 721 366 687T397 593Q397 519 354 440T226 275V125Q226 99 233 82T251 56T275 42T301 38Q321 38 343 47T389 76H391L415 41H415ZM340 588Q340 626 325 649T287 673Q264 673 245 645T226 557V335Q282 400 311 465T340 588Z"  />
<glyph unicode="&#x2122;" horiz-adv-x="1000" d="M928 296H868V642H866L727 296H688L549 642H547V296H487V708H580L709 392L838 708H928V296ZM401 654H268V296H208V654H72V708H401V654Z"  />
<glyph unicode="&#x2126;" horiz-adv-x="744" d="M434 0V181Q479 189 513 209T571 261T606 331T618 415Q618 469 599 514T545 591T465 642T366 660Q313 660 267 642T187 591T134 513T114 415Q114 371 125 332T160 261T218 209T298 181V0H47V58H244V140Q197 153 161 180T99 243T60 324T47 416Q47 483 72 539T142 635T244 698T367 721Q432 721 489 699T590 636T659 539T685 417Q685 369 672 325T634 244T573 180T488 140V58H685V0H434Z"  />
<glyph unicode="&#x212E;" horiz-adv-x="604" d="M157 259V78Q216 19 302 19Q365 19 411 47T495 139L530 118Q507 82 484 57T433 15T373 -9T302 -17Q243 -17 196 4T114 63T62 151T44 259Q44 317 62 367T114 455T195 513T302 535Q360 535 407 515T489 458T542 371T561 259H157ZM448 295V440Q385 500 301 500Q217 500 157 440V295H448Z"  />
<glyph unicode="&#x2202;" horiz-adv-x="496" d="M455 363Q455 308 447 243T415 121T347 26T230 -12Q183 -12 146 6T84 56T45 127T31 212Q31 255 44 294T82 362T143 408T225 425Q274 425 317 402T391 341Q391 354 391 367T392 393Q392 435 384 482T355 571T300 639T213 666Q178 666 153 653T101 620L65 663Q97 691 132 706T210 721Q258 721 295 706T359 663T404 601T434 525T450 444T455 363ZM386 278Q359 314 319 341T231 369Q197 369 172 356T129 321T103 270T94 210Q94 180 102 150T128 96T171 56T231 41Q274 41 303 65T350 125T376 202T386 278Z"  />
<glyph unicode="&#x2206;" horiz-adv-x="670" d="M15 0L296 712H370L657 0H15ZM332 645L106 62H561L332 645Z"  />
<glyph unicode="&#x220F;" horiz-adv-x="711" d="M575 -214V724H137V-214H71V786H641V-214H575Z"  />
<glyph unicode="&#x2211;" horiz-adv-x="604" d="M25 -214V-159L354 289L39 730V786H566V724H124L433 289L105 -153H578V-214H25Z"  />
<glyph unicode="&#x2212;" horiz-adv-x="666" d="M588 273H78V333H588V273Z"  />
<glyph unicode="&#x2215;" horiz-adv-x="168" d="M-167 0L284 740L335 709L-115 -32L-167 0Z"  />
<glyph unicode="&#x2219;" horiz-adv-x="278" d="M193 314Q193 293 178 277T139 260Q115 260 100 276T85 314Q85 335 100 351T139 368Q163 368 178 352T193 314Z"  />
<glyph unicode="&#x221A;" horiz-adv-x="493" d="M292 -214H226L62 126L16 104L-8 154L92 202L250 -130L439 786H502L292 -214Z"  />
<glyph unicode="&#x221E;" horiz-adv-x="741" d="M700 252Q700 221 690 194T662 147T618 116T560 104Q531 104 505 113T456 138T412 173T371 211Q349 193 328 174T285 140T237 114T181 104Q149 104 124 115T80 145T51 191T41 249Q41 279 50 306T78 353T121 385T179 397Q208 397 234 387T284 360T329 324T371 285Q391 304 411 324T454 360T502 387T558 398Q590 398 616 387T661 357T690 310T700 252ZM643 249Q643 287 622 314T560 341Q539 341 519 332T479 308T442 278T409 248Q425 234 442 219T479 191T519 170T563 162Q601 162 622 187T643 249ZM333 249Q318 262 300 277T262 307T220 330T178 340Q159 340 144 333T119 313T104 284T98 250Q98 212 120 187T182 162Q202 162 223 170T264 192T301 220T333 249Z"  />
<glyph unicode="&#x222B;" horiz-adv-x="543" d="M406 736Q406 719 396 711T369 702Q355 702 348 708T337 721T328 735T317 742Q305 742 298 729T288 697T283 654T281 610T282 572T283 551V47Q283 15 282 -29T270 -115T234 -184T161 -213Q140 -213 121 -202T101 -166Q101 -152 110 -143T134 -134Q147 -134 154 -140T165 -153T174 -166T184 -172Q197 -172 204 -150T213 -99T216 -45T216 -13L217 8V503Q217 526 216 556T216 617T223 679T242 733T278 771T336 786Q347 786 359 784T382 775T399 760T406 736Z"  />
<glyph unicode="&#x2248;" horiz-adv-x="666" d="M596 402Q593 376 585 351T561 307T525 277T473 265Q441 265 404 276T328 302Q291 316 257 327T195 338Q161 338 141 314T116 258H71Q74 284 82 309T106 353T143 385T195 397Q228 397 264 386T338 361Q376 347 410 336T474 324Q510 324 528 347T553 402H596H596ZM596 232Q593 206 585 181T561 137T524 106T472 94Q440 94 403 105T328 131Q291 145 257 156T195 167Q161 167 141 143T116 87H71Q75 113 83 138T105 183T142 215T194 227Q227 227 263 216T338 191Q375 177 410 166T474 154Q509 154 527 177T552 232H596H596Z"  />
<glyph unicode="&#x2260;" horiz-adv-x="666" d="M297 120L221 -24L169 3L231 120H82V180H263L331 310H82V370H364L441 517L493 489L430 370H584V310H398L329 180H584V120H297Z"  />
<glyph unicode="&#x2264;" horiz-adv-x="666" d="M82 296V361L584 550V485L165 328L584 173V108L82 296ZM82 6V65H584V6H82Z"  />
<glyph unicode="&#x2265;" horiz-adv-x="666" d="M82 108V173L502 328L82 485V550L584 361V296L82 108ZM82 6V65H584V6H82Z"  />
<glyph unicode="&#x25CA;" horiz-adv-x="593" d="M327 -35H264L95 356L264 747H327L498 356L327 -35ZM296 681L160 356L296 31L433 356L296 681Z"  />
<glyph unicode="&#xE0D6;" horiz-adv-x="240" d="M-22 -173L-19 -174Q-11 -176 -2 -178T16 -180Q40 -180 54 -171T76 -148T85 -116T87 -82V468H153V-93Q153 -103 152 -127T140 -177T101 -221T21 -240Q-7 -240 -31 -230L-22 -173Z"  />
<glyph unicode="&#xE301;" horiz-adv-x="240" d="M118 760H59L159 904H250L118 760Z"  />
<glyph unicode="&#xE302;" horiz-adv-x="240" d="M269 760H203L120 868L37 760H-29L80 904H160L269 760Z"  />
<glyph unicode="&#xE303;" horiz-adv-x="240" d="M160 760H80L-29 904H37L120 796L203 904H269L160 760Z"  />
<glyph unicode="&#xE304;" horiz-adv-x="240" d="M-42 771Q-39 790 -33 809T-15 842T11 866T50 875Q68 875 86 868T123 852Q141 844 158 837T190 829Q213 829 223 844T239 879H282Q279 859 273 841T255 808T228 784T190 775Q172 775 154 782T117 798Q100 807 83 814T50 821Q27 821 17 806T1 771H-42Z"  />
<glyph unicode="&#xE306;" horiz-adv-x="240" d="M255 791H-15V845H255V791Z"  />
<glyph unicode="&#xE307;" horiz-adv-x="240" d="M267 898Q263 835 223 801T120 766Q58 766 18 800T-27 898H17Q24 859 53 840T120 820Q158 820 187 839T223 898H267Z"  />
<glyph unicode="&#xE308;" horiz-adv-x="240" d="M180 835Q180 860 163 877T120 894Q95 894 78 877T60 835Q60 810 77 793T120 776Q145 776 162 793T180 835ZM216 835Q216 815 209 798T188 767T157 747T120 740Q100 740 83 747T53 767T32 797T24 835Q24 855 31 872T52 902T83 922T120 930Q139 930 156 923T187 903T208 873T216 835Z"  />
<glyph unicode="&#xE309;" horiz-adv-x="240" d="M204 760H145L245 904H336L204 760ZM3 760H-56L45 904H136L3 760Z"  />
<glyph unicode="&#xE30A;" horiz-adv-x="240" d="M69 817Q69 837 83 852T120 868Q143 868 157 853T171 817Q171 797 157 782T120 766Q97 766 83 781T69 817Z"  />
<glyph unicode="&#xE30B;" horiz-adv-x="240" d="M143 523H86L148 708H219L143 523Z"  />
<glyph unicode="&#xE30C;" horiz-adv-x="240" d="M105 -230H48L110 -45H181L105 -230Z"  />
<glyph unicode="&#xE30D;" horiz-adv-x="240" d="M172 749H229L167 564H96L172 749Z"  />
<glyph unicode="&#xFB01;" horiz-adv-x="537" d="M465 648Q465 627 450 614T417 600Q399 600 384 613T369 648Q369 669 384 682T417 696Q435 696 450 683T465 648ZM450 0H384V468H450V0ZM290 408H179V0H113V408H14V468H113V596Q113 689 156 728T270 768Q284 768 298 766T327 761L315 701Q303 704 290 706T264 708Q237 708 220 699T194 674T182 635T179 588V468H290V408Z"  />
<glyph unicode="&#xFB02;" horiz-adv-x="537" d="M450 0H384V756H450V0ZM290 408H179V0H113V408H14V468H113V596Q113 689 156 728T270 768Q284 768 298 766T327 761L315 701Q303 704 290 706T264 708Q237 708 220 699T194 674T182 635T179 588V468H290V408Z"  />

</font>
</defs>
</svg>
